<?xml version="1.0" encoding="UTF-8" standalone="no"?>
<svg
   width="1740.8"
   height="1740.8"
   viewBox="0 0 1024 1024"
   version="1.1"
   xml:space="preserve"
   style="clip-rule:evenodd;fill-rule:evenodd;stroke-linecap:round;stroke-linejoin:round;stroke-miterlimit:1.5"
   id="svg55"
   sodipodi:docname="rei(1).svg"
   inkscape:export-filename="..\Documents\dev\reitw-website\static\img\ring-buffer.svg"
   inkscape:export-xdpi="96"
   inkscape:export-ydpi="96"
   inkscape:version="1.3.2 (091e20e, 2023-11-25, custom)"
   xmlns:inkscape="http://www.inkscape.org/namespaces/inkscape"
   xmlns:sodipodi="http://sodipodi.sourceforge.net/DTD/sodipodi-0.dtd"
   xmlns="http://www.w3.org/2000/svg"
   xmlns:svg="http://www.w3.org/2000/svg"
   xmlns:serif="http://www.serif.com/"><defs
   id="defs55"><rect
   x="41.902813"
   y="23.570332"
   width="597.11511"
   height="98.920334"
   id="rect63" /><rect
   x="86.424553"
   y="50.632565"
   width="468.98608"
   height="74.284698"
   id="rect62" /><rect
   x="41.029839"
   y="25.316282"
   width="166.73828"
   height="74.222191"
   id="rect61" /><rect
   x="30.554134"
   y="33.173061"
   width="109.12191"
   height="44.366024"
   id="rect60" /><rect
   x="26.189259"
   y="17.459505"
   width="180.86101"
   height="83.262405"
   id="rect59" /><rect
   x="27.062235"
   y="27.935209"
   width="143.16795"
   height="61.981243"
   id="rect58" /><rect
   x="32.300083"
   y="43.648766"
   width="200.78432"
   height="106.50298"
   id="rect57" /><inkscape:path-effect
   effect="powerclip"
   id="path-effect57"
   is_visible="true"
   lpeversion="1"
   inverse="true"
   flatten="false"
   hide_clip="false"
   message="Utilise la règle de remplissage « fill-rule: evenodd » de la boîte de dialogue &lt;b&gt;Fond et contour&lt;/b&gt; en l'absence de résultat de mise à plat après une conversion en chemin." /><inkscape:path-effect
   effect="powerclip"
   id="path-effect56"
   is_visible="true"
   lpeversion="1"
   inverse="true"
   flatten="false"
   hide_clip="false"
   message="Utilise la règle de remplissage « fill-rule: evenodd » de la boîte de dialogue &lt;b&gt;Fond et contour&lt;/b&gt; en l'absence de résultat de mise à plat après une conversion en chemin." />
            
            <clipPath
   id="_clip1">
                <path
   d="M 566,271.5 C 566,250.803 550.473,234 531.349,234 H 328.651 C 309.527,234 294,250.803 294,271.5 v 75 c 0,20.697 15.527,37.5 34.651,37.5 H 531.349 C 550.473,384 566,367.197 566,346.5 Z"
   id="path45" />
            </clipPath>
            
            
        
            
            <clipPath
   id="_clip2">
                <path
   d="M 566,271.5 C 566,250.803 550.473,234 531.349,234 H 328.651 C 309.527,234 294,250.803 294,271.5 v 75 c 0,20.697 15.527,37.5 34.651,37.5 H 531.349 C 550.473,384 566,367.197 566,346.5 Z"
   id="path50" />
            </clipPath>
            
            
        
            
            
        <clipPath
   clipPathUnits="userSpaceOnUse"
   id="clipPath55"><g
     transform="matrix(0.76459901,0,0,0.76459901,120.52531,120.52531)"
     id="g56"
     style="display:block">
            <circle
   cx="512"
   cy="512"
   r="512"
   style="fill:#030e17"
   id="circle55" />
            <path
   d="m 512,0 c 282.58,0 512,229.42 512,512 0,282.58 -229.42,512 -512,512 C 229.42,1024 0,794.58 0,512 0,229.42 229.42,0 512,0 Z m 0,4.214 c 280.255,0 507.79,227.531 507.79,507.786 0,280.255 -227.535,507.79 -507.79,507.79 C 231.745,1019.79 4.214,792.255 4.214,512 4.214,231.745 231.745,4.214 512,4.214 Z"
   style="fill:#061a30"
   id="path55" />
        </g></clipPath><clipPath
   clipPathUnits="userSpaceOnUse"
   id="clipPath57"><path
     id="lpe_path-effect57"
     style="fill:#212121;fill-opacity:1;stroke:#e27fe0;stroke-width:1.96869;stroke-opacity:1"
     class="powerclip"
     d="M -5,-5 H 1029 V 1029 H -5 Z M 901.50946,512.00012 A 389.50946,389.50946 0 0 0 512,122.49066 389.50946,389.50946 0 0 0 122.49054,512.00012 389.50946,389.50946 0 0 0 512,901.50958 389.50946,389.50946 0 0 0 901.50946,512.00012 Z" /></clipPath>
            
            
            
            
            
        </defs><sodipodi:namedview
   id="namedview55"
   pagecolor="#ffffff"
   bordercolor="#000000"
   borderopacity="0.25"
   inkscape:showpageshadow="2"
   inkscape:pageopacity="0.0"
   inkscape:pagecheckerboard="0"
   inkscape:deskcolor="#d1d1d1"
   inkscape:zoom="0.40499817"
   inkscape:cx="595.06442"
   inkscape:cy="971.60933"
   inkscape:window-width="2560"
   inkscape:window-height="1369"
   inkscape:window-x="-8"
   inkscape:window-y="-8"
   inkscape:window-maximized="1"
   inkscape:current-layer="Layer3" />
    <g
   id="Layer3">
        <path
   id="circle1"
   clip-path="url(#clipPath57)"
   d="M 1024,512 A 512,512 0 0 1 512,1024 512,512 0 0 1 0,512 512,512 0 0 1 512,0 512,512 0 0 1 1024,512 Z"
   style="fill:#b2b2b2;fill-opacity:1" />
        
        <g
   transform="matrix(0.988281,0,0,0.988281,6,6)"
   id="g2"
   style="fill:#7b1818;fill-opacity:1">
            <g
   id="Layer8"
   style="fill:#7b1818;fill-opacity:1">
                <path
   d="M 983.298,712.054 C 1010.16,648.778 1024,580.741 1024,512 1024,229.23 794.77,0 512,0 v 111.757 c 221.048,0 400.243,179.195 400.243,400.243 0,53.736 -10.821,106.923 -31.817,156.387 z"
   style="fill:#7b1818;fill-opacity:1"
   id="path2" />
            </g>
        </g>
        <g
   transform="matrix(0.988281,0,0,0.988281,6,6)"
   id="g3"
   style="fill:#286c4a;fill-opacity:1">
            <g
   id="Layer81"
   serif:id="Layer8"
   style="fill:#286c4a;fill-opacity:1">
                <path
   d="M 512,0 C 229.23,0 0,229.23 0,512 c 0,282.58 229.42,512 512,512 205.459,0 391.019,-122.819 471.298,-311.946 L 880.426,668.387 C 817.669,816.232 672.613,912.243 512,912.243 291.1,912.243 111.757,732.9 111.757,512 111.757,290.952 290.952,111.757 512,111.757 Z"
   style="fill:#286c4a;fill-opacity:1"
   id="path3" />
            </g>
        </g>
        
        <g
   transform="matrix(1,0,0,1.117611,12,-18.783612)"
   id="g5"
   style="fill:#8c8c8c;fill-opacity:1;stroke:#b2b2b2;stroke-width:4.6965;stroke-dasharray:none;stroke-opacity:1">
                <path
   d="m 500,22 v 99"
   style="fill:#8c8c8c;fill-opacity:1;stroke:#b2b2b2;stroke-width:4.6965;stroke-dasharray:none;stroke-opacity:1"
   id="path5" />
            </g><g
   transform="matrix(0.880596,0.473869,-0.522673,0.971289,323.072,-192.05715)"
   id="g6"
   style="fill:#a8a8a8;fill-opacity:1;stroke:#b2b2b2;stroke-width:4.72752;stroke-dasharray:none;stroke-opacity:1">
                <path
   d="m 500,22 v 99"
   style="fill:#a8a8a8;fill-opacity:1;stroke:#b2b2b2;stroke-width:4.72752;stroke-dasharray:none;stroke-opacity:1"
   id="path6" />
            </g><g
   transform="matrix(0.09083601,0.9696853,-1.113216,0.09626169,995.2313,-20.335588)"
   id="g7"
   style="fill:#8c8c8c;fill-opacity:1;stroke:#b2b2b2;stroke-width:4.75951;stroke-dasharray:none;stroke-opacity:1">
                <path
   d="m 500,22 v 99"
   style="fill:#8c8c8c;fill-opacity:1;stroke:#b2b2b2;stroke-width:4.75951;stroke-dasharray:none;stroke-opacity:1"
   id="path7" />
            </g><g
   transform="matrix(0.55685221,0.84922034,-0.93047791,0.61829942,676.50232,-205.07444)"
   id="g8"
   style="fill:#8c8c8c;fill-opacity:1;stroke:#b2b2b2;stroke-width:4.66144;stroke-dasharray:none;stroke-opacity:1">
                <path
   d="m 500,22 v 99"
   style="fill:#8c8c8c;fill-opacity:1;stroke:#b2b2b2;stroke-width:4.66144;stroke-dasharray:none;stroke-opacity:1"
   id="path8" />
            </g><g
   transform="matrix(-0.39815441,0.93290324,-1.0274668,-0.43980863,1199.1459,254.17196)"
   id="g9"
   style="stroke:#b2b2b2;stroke-width:4.66318;stroke-dasharray:none;stroke-opacity:1">
                <path
   d="m 500,22 v 99"
   style="fill:none;stroke:#b2b2b2;stroke-width:4.66318;stroke-dasharray:none;stroke-opacity:1"
   id="path9" />
            </g>
        <g
   id="Layer4">
            
            
            
            
            
        </g>
        <path
   d="m 647.5416,279.47949 c 0,-18.22474 -14.84669,-33.02062 -33.13278,-33.02062 h -193.8169 c -18.28609,0 -33.13278,14.79588 -33.13278,33.02062 v 66.04123 c 0,18.22473 14.84669,33.02062 33.13278,33.02062 h 193.8169 c 18.28609,0 33.13278,-14.79589 33.13278,-33.02062 z"
   style="fill:#4d4d4d;fill-opacity:1;stroke:#000000;stroke-width:0.917588;stroke-opacity:1"
   id="path44" /><g
   clip-path="url(#_clip1)"
   id="g47"
   style="fill:#b2b2b2;fill-opacity:1"
   transform="matrix(0.959559,0,0,0.886667,104.89,38.52)">
                <g
   transform="matrix(1.74518,0,0,1.88865,-431.046,-176.94)"
   id="g46"
   style="fill:#b2b2b2;fill-opacity:1">
                    <path
   d="m 438.7265,252.142 v -13.99071 h 6.20325 q 1.87051,0 2.84395,0.38174 0.97343,0.37219 1.55558,1.32654 0.58215,0.95434 0.58215,2.1091 0,1.48878 -0.96389,2.50993 -0.96389,1.02115 -2.97756,1.29791 0.73485,0.35311 1.11659,0.69667 0.81119,0.74439 1.53649,1.86098 l 2.43359,3.80784 h -2.32861 l -1.85143,-2.91076 q -0.81119,-1.25973 -1.33608,-1.92777 -0.52489,-0.66805 -0.9448,-0.93526 -0.41037,-0.26722 -0.83983,-0.3722 -0.31493,-0.0668 -1.03069,-0.0668 h -2.14728 v 6.21279 z m 1.85143,-7.81609 h 3.97962 q 1.26928,0 1.98504,-0.25768 0.71576,-0.26721 1.08795,-0.83982 0.3722,-0.58215 0.3722,-1.25974 0,-0.99252 -0.7253,-1.63193 -0.71576,-0.63941 -2.27135,-0.63941 h -4.42816 z m 18.95331,4.55223 1.77508,0.2195 q -0.41991,1.55558 -1.55559,2.41449 -1.13567,0.85891 -2.90121,0.85891 -2.22362,0 -3.53108,-1.36471 -1.29791,-1.37426 -1.29791,-3.84602 0,-2.55764 1.317,-3.97007 1.317,-1.41244 3.41656,-1.41244 2.03276,0 3.32112,1.38381 1.28837,1.3838 1.28837,3.89373 0,0.15269 -0.01,0.45808 h -7.55842 q 0.0954,1.67011 0.9448,2.55765 0.84937,0.88754 2.11865,0.88754 0.9448,0 1.61284,-0.49626 0.66804,-0.49626 1.05933,-1.58421 z m -5.64019,-2.77715 h 5.65927 q -0.11452,-1.27882 -0.64895,-1.91823 -0.82074,-0.99252 -2.12819,-0.99252 -1.18339,0 -1.99459,0.7921 -0.80165,0.79211 -0.88754,2.11865 z m 16.18571,4.79082 q -0.95435,0.81119 -1.84189,1.14521 -0.878,0.33402 -1.88961,0.33402 -1.6701,0 -2.56719,-0.81119 -0.89708,-0.82074 -0.89708,-2.09002 0,-0.74439 0.33402,-1.35517 0.34357,-0.62033 0.88754,-0.99252 0.55352,-0.37219 1.24065,-0.56306 0.50581,-0.13361 1.52696,-0.25768 2.08047,-0.24813 3.06344,-0.59169 0.01,-0.35311 0.01,-0.44854 0,-1.04978 -0.48672,-1.47924 -0.6585,-0.58215 -1.95641,-0.58215 -1.21202,0 -1.79417,0.42945 -0.5726,0.41992 -0.84936,1.49833 l -1.67965,-0.22905 q 0.22904,-1.07841 0.75393,-1.7369 0.52489,-0.66805 1.51741,-1.02115 0.99252,-0.36266 2.29997,-0.36266 1.29791,0 2.10911,0.30539 0.81119,0.3054 1.19293,0.77302 0.38174,0.45809 0.53443,1.16431 0.0859,0.439 0.0859,1.58421 v 2.29043 q 0,2.39541 0.10498,3.03482 0.11452,0.62987 0.439,1.21202 h -1.79417 q -0.26722,-0.53444 -0.34356,-1.25019 z m -0.14316,-3.83647 q -0.93525,0.38173 -2.80577,0.64895 -1.05933,0.1527 -1.49832,0.34357 -0.439,0.19086 -0.67759,0.56306 -0.23859,0.36265 -0.23859,0.81119 0,0.68713 0.51535,1.14522 0.52489,0.45808 1.52695,0.45808 0.99252,0 1.76554,-0.42945 0.77302,-0.439 1.13567,-1.19293 0.27676,-0.58215 0.27676,-1.71783 z m 10.97498,5.08666 v -1.27882 q -0.96389,1.50786 -2.83441,1.50786 -1.21202,0 -2.23317,-0.66804 -1.0116,-0.66804 -1.57467,-1.86097 -0.55352,-1.20248 -0.55352,-2.75806 0,-1.51741 0.5058,-2.74852 0.50581,-1.24065 1.51741,-1.89915 1.01161,-0.6585 2.2618,-0.6585 0.91618,0 1.63193,0.39129 0.71576,0.38173 1.16431,1.00206 v -5.01986 h 1.70828 V 252.142 Z m -5.43023,-5.05803 q 0,1.94686 0.82074,2.91075 0.82074,0.96389 1.93732,0.96389 1.12613,0 1.90869,-0.91617 0.79211,-0.92572 0.79211,-2.81532 0,-2.08048 -0.80165,-3.05391 -0.80165,-0.97343 -1.9755,-0.97343 -1.14521,0 -1.91823,0.93526 -0.76348,0.93526 -0.76348,2.94893 z m 15.15501,8.94222 v -14.01934 h 1.56513 v 1.31699 q 0.55352,-0.77302 1.25019,-1.15475 0.69668,-0.39129 1.6892,-0.39129 1.29791,0 2.29043,0.66805 0.99252,0.66804 1.49832,1.8896 0.5058,1.21202 0.5058,2.66262 0,1.55559 -0.56306,2.80578 -0.55352,1.24065 -1.62239,1.90869 -1.05932,0.6585 -2.23317,0.6585 -0.85891,0 -1.54604,-0.36265 -0.67758,-0.36265 -1.11658,-0.91617 v 4.93397 z m 1.55559,-8.89451 q 0,1.95641 0.7921,2.89167 0.79211,0.93526 1.91824,0.93526 1.14521,0 1.95641,-0.96389 0.82074,-0.97343 0.82074,-3.00619 0,-1.93732 -0.80165,-2.90121 -0.79211,-0.96389 -1.89915,-0.96389 -1.0975,0 -1.94687,1.03069 -0.83982,1.02115 -0.83982,2.97756 z m 8.675,-0.0573 q 0,-2.81532 1.56513,-4.17049 1.30745,-1.12613 3.18751,-1.12613 2.09002,0 3.41656,1.37426 1.32654,1.36472 1.32654,3.77921 0,1.95641 -0.59169,3.08254 -0.58215,1.11658 -1.70828,1.73691 -1.11659,0.62032 -2.44313,0.62032 -2.12819,0 -3.44518,-1.36471 -1.30746,-1.36472 -1.30746,-3.93191 z m 1.76554,0 q 0,1.94687 0.84937,2.9203 0.84937,0.96389 2.13773,0.96389 1.27883,0 2.12819,-0.97343 0.84937,-0.97344 0.84937,-2.96802 0,-1.88006 -0.85891,-2.84395 -0.84937,-0.97343 -2.11865,-0.97343 -1.28836,0 -2.13773,0.96389 -0.84937,0.96389 -0.84937,2.91075 z m 9.75341,-6.94763 v -1.9755 h 1.71782 v 1.9755 z m 0,12.01521 v -10.13515 h 1.71782 V 252.142 Z m 4.33273,0 v -10.13515 h 1.54604 v 1.44106 q 1.11658,-1.67011 3.22569,-1.67011 0.91617,0 1.67965,0.33402 0.77302,0.32448 1.15475,0.85892 0.38174,0.53443 0.53444,1.26928 0.0954,0.47717 0.0954,1.6701 v 6.23188 h -1.71782 v -6.16507 q 0,-1.04979 -0.20041,-1.56513 -0.20042,-0.52489 -0.71576,-0.83028 -0.50581,-0.31494 -1.19293,-0.31494 -1.0975,0 -1.89915,0.69668 -0.79211,0.69667 -0.79211,2.64353 v 5.53521 z m 14.62058,-1.5365 0.24813,1.51741 q -0.7253,0.1527 -1.29791,0.1527 -0.93526,0 -1.45061,-0.29585 -0.51534,-0.29585 -0.7253,-0.77302 -0.20996,-0.48672 -0.20996,-2.03276 v -5.83105 h -1.25973 v -1.33608 h 1.25973 v -2.50993 l 1.70828,-1.0307 v 3.54063 h 1.72737 v 1.33608 h -1.72737 v 5.92649 q 0,0.73484 0.0859,0.9448 0.0954,0.20996 0.29585,0.33402 0.20996,0.12407 0.5917,0.12407 0.2863,0 0.75393,-0.0668 z m 8.61774,-1.72736 1.77509,0.2195 q -0.41992,1.55558 -1.55559,2.41449 -1.13567,0.85891 -2.90121,0.85891 -2.22362,0 -3.53108,-1.36471 -1.29791,-1.37426 -1.29791,-3.84602 0,-2.55764 1.317,-3.97007 1.317,-1.41244 3.41656,-1.41244 2.03275,0 3.32112,1.38381 1.28837,1.3838 1.28837,3.89373 0,0.15269 -0.01,0.45808 h -7.55841 q 0.0954,1.67011 0.9448,2.55765 0.84937,0.88754 2.11865,0.88754 0.9448,0 1.61284,-0.49626 0.66804,-0.49626 1.05932,-1.58421 z m -5.64018,-2.77715 h 5.65927 q -0.11452,-1.27882 -0.64895,-1.91823 -0.82074,-0.99252 -2.1282,-0.99252 -1.18338,0 -1.99458,0.7921 -0.80165,0.79211 -0.88754,2.11865 z m 9.553,6.04101 v -10.13515 h 1.54604 v 1.53649 q 0.59169,-1.07841 1.08795,-1.42197 0.50581,-0.34357 1.10704,-0.34357 0.86846,0 1.76554,0.55352 l -0.59169,1.59376 q -0.62987,-0.37219 -1.25974,-0.37219 -0.56306,0 -1.0116,0.34356 -0.44855,0.33402 -0.63942,0.93526 -0.2863,0.91617 -0.2863,2.00413 v 5.30616 z"
   id="text45"
   style="font-size:19.545px;font-family:ArialMT, Arial, sans-serif"
   aria-label="Read pointer" />
                    <path
   d="m 427.10232,276.43922 q -1.42197,-1.79417 -2.40495,-4.19912 -0.98298,-2.40495 -0.98298,-4.98169 0,-2.27134 0.73485,-4.35181 0.85891,-2.4145 2.65308,-4.80991 h 1.23111 q -1.15476,1.98504 -1.52696,2.83441 -0.58215,1.317 -0.91617,2.74852 -0.41037,1.78462 -0.41037,3.58834 0,4.5904 2.8535,9.17126 z m 9.86794,-4.11323 v -1.48878 q -1.18339,1.71782 -3.21615,1.71782 -0.89708,0 -1.67965,-0.34356 -0.77302,-0.34357 -1.15476,-0.85891 -0.37219,-0.52489 -0.52489,-1.27883 -0.10497,-0.5058 -0.10497,-1.6033 v -6.27959 h 1.71782 v 5.62109 q 0,1.34563 0.10498,1.81326 0.16224,0.67759 0.68713,1.06887 0.52489,0.38174 1.29791,0.38174 0.77302,0 1.4506,-0.39129 0.67759,-0.40082 0.95435,-1.07841 0.2863,-0.68713 0.2863,-1.98504 v -5.43022 h 1.71782 v 10.13515 z m 3.54062,-3.02528 1.69873,-0.26721 q 0.14316,1.02115 0.79211,1.56512 0.6585,0.54398 1.83235,0.54398 1.18338,0 1.75599,-0.47717 0.57261,-0.48672 0.57261,-1.13567 0,-0.58216 -0.5058,-0.91618 -0.35311,-0.22904 -1.756,-0.58215 -1.88961,-0.47717 -2.62445,-0.82073 -0.7253,-0.35311 -1.10704,-0.96389 -0.3722,-0.62033 -0.3722,-1.36472 0,-0.67758 0.30539,-1.25019 0.31494,-0.58215 0.84937,-0.96389 0.40083,-0.29585 1.08796,-0.49626 0.69667,-0.20996 1.48877,-0.20996 1.19294,0 2.09002,0.34357 0.90663,0.34356 1.33609,0.93526 0.42945,0.58215 0.59169,1.56512 l -1.67965,0.22905 q -0.11452,-0.78257 -0.66804,-1.22156 -0.54398,-0.439 -1.54604,-0.439 -1.18339,0 -1.68919,0.39128 -0.50581,0.39128 -0.50581,0.91617 0,0.33402 0.20996,0.60124 0.20996,0.27676 0.6585,0.45808 0.25767,0.0954 1.51741,0.439 1.8228,0.48672 2.53856,0.80165 0.7253,0.30539 1.13567,0.89709 0.41037,0.59169 0.41037,1.46969 0,0.85891 -0.50581,1.62239 -0.49625,0.75393 -1.44106,1.17384 -0.9448,0.41037 -2.13773,0.41037 -1.9755,0 -3.01573,-0.82074 -1.0307,-0.82073 -1.317,-2.43358 z m 17.39772,-0.23858 1.77509,0.2195 q -0.41992,1.55558 -1.55559,2.41449 -1.13567,0.85891 -2.90121,0.85891 -2.22362,0 -3.53108,-1.36471 -1.29791,-1.37426 -1.29791,-3.84602 0,-2.55764 1.317,-3.97007 1.317,-1.41244 3.41656,-1.41244 2.03275,0 3.32112,1.38381 1.28837,1.3838 1.28837,3.89373 0,0.15269 -0.01,0.45808 h -7.55842 q 0.0954,1.67011 0.94481,2.55765 0.84936,0.88754 2.11864,0.88754 0.94481,0 1.61285,-0.49626 0.66804,-0.49626 1.05932,-1.58421 z m -5.64018,-2.77715 h 5.65927 q -0.11452,-1.27882 -0.64896,-1.91823 -0.82073,-0.99252 -2.12819,-0.99252 -1.18339,0 -1.99458,0.7921 -0.80165,0.79211 -0.88754,2.11865 z m 9.553,6.04101 v -10.13515 h 1.54604 v 1.53649 q 0.59169,-1.07841 1.08795,-1.42197 0.50581,-0.34357 1.10704,-0.34357 0.86846,0 1.76554,0.55352 l -0.59169,1.59376 q -0.62987,-0.37219 -1.25974,-0.37219 -0.56306,0 -1.0116,0.34356 -0.44855,0.33402 -0.63941,0.93526 -0.28631,0.91617 -0.28631,2.00413 v 5.30616 z m 5.84059,-3.02528 1.69874,-0.26721 q 0.14315,1.02115 0.79211,1.56512 0.65849,0.54398 1.83234,0.54398 1.18339,0 1.756,-0.47717 0.5726,-0.48672 0.5726,-1.13567 0,-0.58216 -0.5058,-0.91618 -0.35311,-0.22904 -1.756,-0.58215 -1.8896,-0.47717 -2.62445,-0.82073 -0.7253,-0.35311 -1.10704,-0.96389 -0.37219,-0.62033 -0.37219,-1.36472 0,-0.67758 0.30539,-1.25019 0.31493,-0.58215 0.84937,-0.96389 0.40082,-0.29585 1.08795,-0.49626 0.69667,-0.20996 1.48878,-0.20996 1.19293,0 2.09002,0.34357 0.90662,0.34356 1.33608,0.93526 0.42946,0.58215 0.59169,1.56512 l -1.67964,0.22905 q -0.11453,-0.78257 -0.66805,-1.22156 -0.54397,-0.439 -1.54604,-0.439 -1.18338,0 -1.68919,0.39128 -0.5058,0.39128 -0.5058,0.91617 0,0.33402 0.20995,0.60124 0.20996,0.27676 0.6585,0.45808 0.25768,0.0954 1.51741,0.439 1.8228,0.48672 2.53856,0.80165 0.72531,0.30539 1.13567,0.89709 0.41037,0.59169 0.41037,1.46969 0,0.85891 -0.5058,1.62239 -0.49626,0.75393 -1.44106,1.17384 -0.9448,0.41037 -2.13774,0.41037 -1.97549,0 -3.01573,-0.82074 -1.03069,-0.82073 -1.317,-2.43358 z m 10.45964,6.90947 v -14.01934 h 1.56512 v 1.31699 q 0.55352,-0.77302 1.2502,-1.15475 0.69667,-0.39129 1.68919,-0.39129 1.29791,0 2.29043,0.66805 0.99252,0.66804 1.49832,1.8896 0.5058,1.21202 0.5058,2.66263 0,1.55558 -0.56306,2.80577 -0.55352,1.24065 -1.62239,1.90869 -1.05932,0.6585 -2.23317,0.6585 -0.85891,0 -1.54604,-0.36265 -0.67758,-0.36265 -1.11658,-0.91617 v 4.93397 z m 1.55558,-8.89451 q 0,1.95641 0.79211,2.89167 0.7921,0.93526 1.91823,0.93526 1.14522,0 1.95641,-0.96389 0.82074,-0.97343 0.82074,-3.00619 0,-1.93732 -0.80165,-2.90121 -0.79211,-0.96389 -1.89915,-0.96389 -1.0975,0 -1.94687,1.0307 -0.83982,1.02115 -0.83982,2.97755 z m 15.92803,3.76013 q -0.95435,0.81119 -1.84189,1.14521 -0.878,0.33402 -1.8896,0.33402 -1.67011,0 -2.56719,-0.81119 -0.89709,-0.82074 -0.89709,-2.09002 0,-0.74439 0.33402,-1.35517 0.34357,-0.62032 0.88755,-0.99252 0.55352,-0.37219 1.24065,-0.56306 0.5058,-0.13361 1.52695,-0.25768 2.08047,-0.24813 3.06345,-0.59169 0.01,-0.35311 0.01,-0.44854 0,-1.04978 -0.48671,-1.47924 -0.6585,-0.58215 -1.95641,-0.58215 -1.21202,0 -1.79417,0.42946 -0.57261,0.41991 -0.84937,1.49832 l -1.67965,-0.22905 q 0.22904,-1.07841 0.75393,-1.7369 0.52489,-0.66805 1.51741,-1.02115 0.99252,-0.36266 2.29998,-0.36266 1.29791,0 2.1091,0.3054 0.81119,0.30539 1.19293,0.77302 0.38174,0.45808 0.53444,1.1643 0.0859,0.439 0.0859,1.58421 v 2.29043 q 0,2.39541 0.10498,3.03482 0.11452,0.62987 0.43899,1.21202 h -1.79417 q -0.26721,-0.53443 -0.34356,-1.25019 z m -0.14315,-3.83647 q -0.93526,0.38173 -2.80578,0.64895 -1.05932,0.1527 -1.49832,0.34357 -0.439,0.19086 -0.67759,0.56306 -0.23858,0.36265 -0.23858,0.81119 0,0.68713 0.51534,1.14522 0.52489,0.45808 1.52696,0.45808 0.99252,0 1.76554,-0.42945 0.77302,-0.439 1.13567,-1.19293 0.27676,-0.58215 0.27676,-1.71783 z m 11.01315,1.37425 1.68919,0.2195 q -0.27676,1.74646 -1.42198,2.73898 -1.13567,0.98297 -2.79623,0.98297 -2.08047,0 -3.34975,-1.35517 -1.25974,-1.36471 -1.25974,-3.90327 0,-1.64148 0.54398,-2.87258 0.54397,-1.23111 1.65101,-1.84189 1.11659,-0.62033 2.42404,-0.62033 1.65102,0 2.7008,0.83983 1.04978,0.83028 1.34563,2.36678 l -1.67011,0.25767 q -0.23858,-1.02115 -0.84936,-1.5365 -0.60124,-0.51534 -1.46015,-0.51534 -1.29791,0 -2.10911,0.93525 -0.81119,0.92572 -0.81119,2.93939 0,2.0423 0.78256,2.96801 0.78257,0.92572 2.0423,0.92572 1.01161,0 1.68919,-0.62032 0.67759,-0.62033 0.85892,-1.9087 z m 10.09697,0.44855 1.77508,0.2195 q -0.41991,1.55558 -1.55558,2.41449 -1.13567,0.85891 -2.90121,0.85891 -2.22363,0 -3.53108,-1.36471 -1.29791,-1.37426 -1.29791,-3.84602 0,-2.55764 1.317,-3.97007 1.317,-1.41244 3.41656,-1.41244 2.03275,0 3.32112,1.38381 1.28837,1.3838 1.28837,3.89373 0,0.15269 -0.01,0.45808 h -7.55842 q 0.0954,1.67011 0.94481,2.55765 0.84936,0.88754 2.11864,0.88754 0.94481,0 1.61285,-0.49626 0.66804,-0.49626 1.05932,-1.58421 z m -5.64018,-2.77715 h 5.65927 q -0.11452,-1.27882 -0.64896,-1.91823 -0.82073,-0.99252 -2.12819,-0.99252 -1.18339,0 -1.99458,0.7921 -0.80165,0.79211 -0.88754,2.11865 z m 21.61593,4.79082 q -0.95435,0.81119 -1.84189,1.14521 -0.878,0.33402 -1.8896,0.33402 -1.67011,0 -2.56719,-0.81119 -0.89709,-0.82074 -0.89709,-2.09002 0,-0.74439 0.33402,-1.35517 0.34357,-0.62032 0.88754,-0.99252 0.55352,-0.37219 1.24065,-0.56306 0.50581,-0.13361 1.52696,-0.25768 2.08047,-0.24813 3.06345,-0.59169 0.01,-0.35311 0.01,-0.44854 0,-1.04978 -0.48672,-1.47924 -0.65849,-0.58215 -1.9564,-0.58215 -1.21202,0 -1.79417,0.42946 -0.57261,0.41991 -0.84937,1.49832 l -1.67965,-0.22905 q 0.22904,-1.07841 0.75393,-1.7369 0.52489,-0.66805 1.51741,-1.02115 0.99252,-0.36266 2.29998,-0.36266 1.29791,0 2.1091,0.3054 0.81119,0.30539 1.19293,0.77302 0.38174,0.45808 0.53443,1.1643 0.0859,0.439 0.0859,1.58421 v 2.29043 q 0,2.39541 0.10497,3.03482 0.11453,0.62987 0.439,1.21202 H 532.892 q -0.26721,-0.53443 -0.34356,-1.25019 z m -0.14315,-3.83647 q -0.93526,0.38173 -2.80578,0.64895 -1.05932,0.1527 -1.49832,0.34357 -0.439,0.19086 -0.67759,0.56306 -0.23858,0.36265 -0.23858,0.81119 0,0.68713 0.51534,1.14522 0.52489,0.45808 1.52696,0.45808 0.99252,0 1.76554,-0.42945 0.77302,-0.439 1.13567,-1.19293 0.27676,-0.58215 0.27676,-1.71783 z m 4.39954,8.97085 v -14.01934 h 1.56512 v 1.31699 q 0.55352,-0.77302 1.2502,-1.15475 0.69667,-0.39129 1.68919,-0.39129 1.29791,0 2.29043,0.66805 0.99252,0.66804 1.49832,1.8896 0.5058,1.21202 0.5058,2.66263 0,1.55558 -0.56306,2.80577 -0.55352,1.24065 -1.62239,1.90869 -1.05932,0.6585 -2.23317,0.6585 -0.85891,0 -1.54604,-0.36265 -0.67758,-0.36265 -1.11658,-0.91617 v 4.93397 z m 1.55558,-8.89451 q 0,1.95641 0.79211,2.89167 0.7921,0.93526 1.91823,0.93526 1.14522,0 1.95641,-0.96389 0.82074,-0.97343 0.82074,-3.00619 0,-1.93732 -0.80165,-2.90121 -0.79211,-0.96389 -1.89915,-0.96389 -1.0975,0 -1.94687,1.0307 -0.83982,1.02115 -0.83982,2.97755 z m 9.31441,8.89451 v -14.01934 h 1.56513 v 1.31699 q 0.55352,-0.77302 1.25019,-1.15475 0.69667,-0.39129 1.68919,-0.39129 1.29791,0 2.29043,0.66805 0.99252,0.66804 1.49832,1.8896 0.50581,1.21202 0.50581,2.66263 0,1.55558 -0.56307,2.80577 -0.55352,1.24065 -1.62238,1.90869 -1.05933,0.6585 -2.23317,0.6585 -0.85891,0 -1.54604,-0.36265 -0.67759,-0.36265 -1.11659,-0.91617 v 4.93397 z m 1.55558,-8.89451 q 0,1.95641 0.79211,2.89167 0.79211,0.93526 1.91824,0.93526 1.14521,0 1.9564,-0.96389 0.82074,-0.97343 0.82074,-3.00619 0,-1.93732 -0.80165,-2.90121 -0.79211,-0.96389 -1.89915,-0.96389 -1.09749,0 -1.94686,1.0307 -0.83983,1.02115 -0.83983,2.97755 z m 10.44055,9.12355 h -1.2311 q 2.85349,-4.58086 2.85349,-9.17126 0,-1.79417 -0.41037,-3.55971 -0.32448,-1.43152 -0.90663,-2.74852 -0.37219,-0.85891 -1.53649,-2.86304 h 1.2311 q 1.79417,2.39541 2.65308,4.80991 0.73485,2.08047 0.73485,4.35181 0,2.57674 -0.99252,4.98169 -0.98298,2.40495 -2.39541,4.19912 z"
   id="text46"
   style="font-size:19.545px;font-family:ArialMT, Arial, sans-serif"
   aria-label="(userspace app)" />
                </g>
            </g><path
   d="m 648.00039,279.25009 c 0,-18.35135 -14.89907,-33.25001 -33.24967,-33.25001 h -194.5007 c -18.3506,0 -33.24967,14.89866 -33.24967,33.25001 v 66.50003 c 0,18.35134 14.89907,33.25001 33.24967,33.25001 h 194.5007 c 18.3506,0 33.24967,-14.89867 33.24967,-33.25001 z m -6.06441,0 v 66.50003 c 0,15.00417 -12.1816,27.18609 -27.18526,27.18609 h -194.5007 c -15.00366,0 -27.18526,-12.18192 -27.18526,-27.18609 0,0 0,-66.50003 0,-66.50003 0,-15.00418 12.1816,-27.1861 27.18526,-27.1861 h 194.5007 c 15.00366,0 27.18526,12.18192 27.18526,27.1861 z"
   style="fill:#b2b2b2;fill-opacity:0.9775;stroke-width:0.922393"
   id="path47" />
        <g
   transform="translate(-76.4776,8.51504)"
   id="g49"
   style="fill:#b2b2b2;fill-opacity:1">
            <path
   d="M 508.02792,511.95499 V 488.5269 h 10.38762 q 3.13227,0 4.76233,0.63924 1.63006,0.62326 2.60489,2.22135 0.97484,1.5981 0.97484,3.5318 0,2.49303 -1.61407,4.20299 -1.61408,1.70996 -4.98606,2.17341 1.23053,0.59129 1.86977,1.16661 1.35838,1.24651 2.57293,3.11628 l 4.07515,6.37641 h -3.89936 l -3.1003,-4.8742 q -1.35838,-2.10948 -2.23734,-3.22815 -0.87895,-1.11867 -1.58211,-1.56613 -0.68718,-0.44747 -1.40632,-0.62326 -0.52738,-0.11187 -1.72595,-0.11187 h -3.59571 v 10.40361 z m 3.10031,-13.08841 h 6.66406 q 2.12546,0 3.32403,-0.43148 1.19858,-0.44747 1.82183,-1.40633 0.62326,-0.97484 0.62326,-2.10948 0,-1.66202 -1.21455,-2.73275 -1.19857,-1.07072 -3.80347,-1.07072 h -7.41516 z m 20.136,-7.03162 v -3.30806 h 2.87657 v 3.30806 z m 0,20.12003 v -16.97178 h 2.87657 v 16.97178 z m 7.25536,0 v -16.97178 h 2.58891 v 2.41312 q 1.86977,-2.79666 5.40157,-2.79666 1.53417,0 2.81264,0.55933 1.29446,0.54335 1.9337,1.43829 0.63924,0.89493 0.89493,2.12546 0.15981,0.79905 0.15981,2.79667 v 10.43557 h -2.87657 v -10.3237 q 0,-1.75791 -0.3356,-2.62088 -0.3356,-0.87895 -1.19857,-1.39034 -0.84699,-0.52737 -1.99762,-0.52737 -1.83781,0 -3.18021,1.16661 -1.32642,1.16661 -1.32642,4.42672 v 9.26896 z m 17.67494,1.40632 2.79666,0.41551 q 0.17579,1.29445 0.97484,1.88575 1.07073,0.79905 2.92452,0.79905 1.99762,0 3.08432,-0.79905 1.08671,-0.79905 1.47025,-2.23734 0.22373,-0.87895 0.20775,-3.6916 -1.88575,2.22136 -4.6984,2.22136 -3.49983,0 -5.41754,-2.52499 -1.91772,-2.525 -1.91772,-6.05679 0,-2.4291 0.87895,-4.47467 0.87896,-2.06154 2.54098,-3.18021 1.678,-1.11866 3.93131,-1.11866 3.00442,0 4.9541,2.4291 v -2.04556 h 2.65284 v 14.67052 q 0,3.96328 -0.81503,5.60931 -0.79905,1.66202 -2.55695,2.62088 -1.74193,0.95886 -4.29888,0.95886 -3.03638,0 -4.90616,-1.37436 -1.86977,-1.35838 -1.80584,-4.10711 z m 2.38116,-10.19585 q 0,3.34002 1.32642,4.87419 1.32642,1.53417 3.32404,1.53417 1.98164,0 3.32404,-1.51819 1.3424,-1.53417 1.3424,-4.79428 0,-3.11629 -1.39035,-4.69841 -1.37436,-1.58211 -3.32404,-1.58211 -1.91771,0 -3.26011,1.56613 -1.3424,1.55016 -1.3424,4.6185 z m 25.68139,8.78953 V 488.5269 h 8.78953 q 2.6848,0 4.29888,0.71915 1.63005,0.70316 2.54097,2.18939 0.92689,1.47025 0.92689,3.08432 0,1.50221 -0.81502,2.82863 -0.81503,1.32642 -2.46107,2.14145 2.12547,0.62326 3.26011,2.12547 1.15063,1.50221 1.15063,3.54777 0,1.64604 -0.70316,3.06834 -0.68718,1.40633 -1.70996,2.17341 -1.02278,0.76709 -2.57294,1.16661 -1.53417,0.38355 -3.7715,0.38355 z m 3.10031,-13.58382 h 5.06596 q 2.06155,0 2.95648,-0.27167 1.18259,-0.35158 1.77389,-1.16661 0.60727,-0.81503 0.60727,-2.04557 0,-1.16661 -0.55933,-2.04556 -0.55934,-0.89493 -1.5981,-1.21455 -1.03876,-0.3356 -3.56375,-0.3356 h -4.68242 z m 0,10.81911 h 5.83305 q 1.50221,0 2.10948,-0.11187 1.07073,-0.19177 1.78987,-0.63923 0.71914,-0.44747 1.18259,-1.29446 0.46345,-0.86297 0.46345,-1.98164 0,-1.31044 -0.6712,-2.2693 -0.6712,-0.97483 -1.86977,-1.35838 -1.18259,-0.39952 -3.41993,-0.39952 h -5.41754 z m 29.61271,2.76471 v -2.49303 q -1.98164,2.87657 -5.38558,2.87657 -1.50221,0 -2.81265,-0.57531 -1.29446,-0.57532 -1.9337,-1.43829 -0.62325,-0.87895 -0.87895,-2.14145 -0.17579,-0.84699 -0.17579,-2.6848 V 494.98321 H 608.66 v 9.41278 q 0,2.25332 0.17579,3.03639 0.27168,1.13464 1.15063,1.78986 0.87896,0.63924 2.17341,0.63924 1.29446,0 2.42911,-0.65522 1.13465,-0.6712 1.59809,-1.80585 0.47943,-1.15063 0.47943,-3.32404 v -9.09316 h 2.87658 v 16.97178 z m 16.09283,0 v -14.75043 h -5.43352 v 14.75043 h -2.87658 v -14.75043 h -2.55695 v -2.22135 h 2.55695 v -1.64604 q 0,-2.52499 1.08671,-3.86739 1.0867,-1.3424 3.4359,-1.3424 1.55016,0 2.92452,0.36756 l -0.44747,2.42911 q -0.84699,-0.14383 -1.55015,-0.14383 -1.48623,0 -2.02958,0.59129 -0.54335,0.5913 -0.54335,2.50901 v 1.10269 h 5.43352 v -1.64604 q 0,-2.52499 1.08671,-3.86739 1.0867,-1.3424 3.4359,-1.3424 1.55016,0 2.92452,0.36756 l -0.44747,2.42911 q -0.84699,-0.14383 -1.55015,-0.14383 -1.48623,0 -2.02958,0.59129 -0.54336,0.5913 -0.54336,2.50901 v 1.10269 h 3.29208 v 2.22135 h -3.29208 v 14.75043 z m 20.08807,-5.46549 2.97246,0.36756 q -0.70317,2.6049 -2.6049,4.04318 -1.90173,1.43829 -4.85821,1.43829 -3.72356,0 -5.91296,-2.28528 -2.17341,-2.30126 -2.17341,-6.44032 0,-4.2829 2.20538,-6.64808 2.20537,-2.36518 5.72118,-2.36518 3.40394,0 5.56137,2.31724 2.15743,2.31723 2.15743,6.52023 0,0.25569 -0.016,0.76708 h -12.65692 q 0.15981,2.79667 1.58212,4.2829 1.4223,1.48623 3.54777,1.48623 1.58211,0 2.70078,-0.83101 1.11867,-0.83101 1.77389,-2.65284 z m -9.44475,-4.65046 h 9.47671 q -0.19177,-2.14145 -1.08671,-3.21217 -1.37436,-1.66202 -3.56375,-1.66202 -1.98164,0 -3.34002,1.32642 -1.3424,1.32642 -1.48623,3.54777 z m 15.99693,10.11595 v -16.97178 h 2.58892 v 2.57293 q 0.99081,-1.80584 1.82182,-2.38116 0.847,-0.57531 1.8538,-0.57531 1.45426,0 2.95647,0.92689 l -0.99082,2.66882 q -1.05474,-0.62325 -2.10948,-0.62325 -0.94288,0 -1.69398,0.57531 -0.75111,0.55933 -1.07073,1.56613 -0.47943,1.53418 -0.47943,3.356 v 8.88542 z"
   id="text48"
   style="font-size:32.729px;font-family:ArialMT, Arial, sans-serif"
   aria-label="Ring Buﬀer" />
        </g>
        <path
   d="m 648.00039,643.28109 c 0,-18.35135 -14.89907,-33.25001 -33.24967,-33.25001 h -194.5007 c -18.3506,0 -33.24967,14.89866 -33.24967,33.25001 v 66.50003 c 0,18.35134 14.89907,33.25001 33.24967,33.25001 h 194.5007 c 18.3506,0 33.24967,-14.89867 33.24967,-33.25001 z"
   style="fill:#4d4d4d;fill-opacity:1;stroke-width:0.922393"
   id="path49" /><g
   clip-path="url(#_clip2)"
   id="g52"
   style="fill:#b2b2b2;fill-opacity:1"
   transform="matrix(0.959559,0,0,0.886667,104.89,402.551)">
                <g
   transform="matrix(1.74518,0,0,1.88865,-431.046,-176.94)"
   id="g51"
   style="fill:#b2b2b2;fill-opacity:1">
                    <g
   id="text50"
   style="font-size:19.545px;font-family:ArialMT, Arial, sans-serif"
   aria-label="Write pointer"><path
     d="m 441.87998,252.142 -3.71241,-13.99071 h 1.89915 l 2.12819,9.17126 q 0.34357,1.44106 0.5917,2.86304 0.53443,-2.24271 0.62986,-2.58628 l 2.66263,-9.44802 h 2.23317 l 2.00412,7.08125 q 0.75394,2.63399 1.08796,4.95305 0.26721,-1.32654 0.69667,-3.04436 l 2.19499,-8.98994 h 1.86098 l -3.83647,13.99071 h -1.78463 l -2.94893,-10.66004 q -0.37219,-1.33609 -0.43899,-1.64148 -0.2195,0.96389 -0.41037,1.64148 l -2.96802,10.66004 z"
     id="path63" /><path
     d="m 457.29229,252.142 v -10.13515 h 1.54604 v 1.53649 q 0.59169,-1.07841 1.08795,-1.42197 0.50581,-0.34357 1.10705,-0.34357 0.86845,0 1.76553,0.55352 l -0.59169,1.59376 q -0.62987,-0.37219 -1.25974,-0.37219 -0.56306,0 -1.0116,0.34356 -0.44854,0.33402 -0.63941,0.93526 -0.28631,0.91617 -0.28631,2.00413 v 5.30616 z m 6.53763,-12.01521 v -1.9755 h 1.71783 v 1.9755 z m 0,12.01521 v -10.13515 h 1.71783 V 252.142 Z"
     id="path64" /><path
     d="m 471.91323,250.6055 0.24813,1.51741 q -0.7253,0.1527 -1.29791,0.1527 -0.93526,0 -1.4506,-0.29585 -0.51535,-0.29585 -0.72531,-0.77302 -0.20995,-0.48672 -0.20995,-2.03276 v -5.83105 h -1.25974 v -1.33608 h 1.25974 v -2.50993 l 1.70828,-1.0307 v 3.54063 h 1.72736 v 1.33608 h -1.72736 v 5.92649 q 0,0.73484 0.0859,0.9448 0.0954,0.20996 0.29584,0.33402 0.20996,0.12407 0.5917,0.12407 0.2863,0 0.75393,-0.0668 z m 8.61774,-1.72736 1.77509,0.2195 q -0.41992,1.55558 -1.55559,2.41449 -1.13567,0.85891 -2.90121,0.85891 -2.22362,0 -3.53108,-1.36471 -1.29791,-1.37426 -1.29791,-3.84602 0,-2.55764 1.317,-3.97007 1.317,-1.41244 3.41656,-1.41244 2.03275,0 3.32112,1.38381 1.28837,1.3838 1.28837,3.89373 0,0.15269 -0.01,0.45808 h -7.55841 q 0.0954,1.67011 0.9448,2.55765 0.84937,0.88754 2.11864,0.88754 0.94481,0 1.61285,-0.49626 0.66804,-0.49626 1.05932,-1.58421 z m -5.64018,-2.77715 h 5.65927 q -0.11452,-1.27882 -0.64896,-1.91823 -0.82073,-0.99252 -2.12819,-0.99252 -1.18338,0 -1.99458,0.7921 -0.80165,0.79211 -0.88754,2.11865 z m 15.00231,9.9252 v -14.01934 h 1.56513 v 1.31699 q 0.55352,-0.77302 1.25019,-1.15475 0.69668,-0.39129 1.6892,-0.39129 1.29791,0 2.29043,0.66805 0.99252,0.66804 1.49832,1.8896 0.5058,1.21202 0.5058,2.66262 0,1.55559 -0.56306,2.80578 -0.55352,1.24065 -1.62239,1.90869 -1.05932,0.6585 -2.23317,0.6585 -0.85891,0 -1.54604,-0.36265 -0.67758,-0.36265 -1.11658,-0.91617 v 4.93397 z m 1.55559,-8.89451 q 0,1.95641 0.79211,2.89167 0.7921,0.93526 1.91823,0.93526 1.14522,0 1.95641,-0.96389 0.82074,-0.97343 0.82074,-3.00619 0,-1.93732 -0.80165,-2.90121 -0.79211,-0.96389 -1.89915,-0.96389 -1.0975,0 -1.94687,1.03069 -0.83982,1.02115 -0.83982,2.97756 z m 8.675,-0.0573 q 0,-2.81532 1.56513,-4.17049 1.30745,-1.12613 3.18751,-1.12613 2.09002,0 3.41656,1.37426 1.32654,1.36472 1.32654,3.77921 0,1.95641 -0.59169,3.08254 -0.58216,1.11658 -1.70828,1.73691 -1.11659,0.62032 -2.44313,0.62032 -2.12819,0 -3.44519,-1.36471 -1.30745,-1.36472 -1.30745,-3.93191 z m 1.76554,0 q 0,1.94687 0.84937,2.9203 0.84937,0.96389 2.13773,0.96389 1.27883,0 2.12819,-0.97343 0.84937,-0.97344 0.84937,-2.96802 0,-1.88006 -0.85891,-2.84395 -0.84937,-0.97343 -2.11865,-0.97343 -1.28836,0 -2.13773,0.96389 -0.84937,0.96389 -0.84937,2.91075 z m 9.75341,-6.94763 v -1.9755 h 1.71783 v 1.9755 z m 0,12.01521 v -10.13515 h 1.71783 V 252.142 Z m 4.33273,0 v -10.13515 h 1.54604 v 1.44106 q 1.11659,-1.67011 3.22569,-1.67011 0.91618,0 1.67965,0.33402 0.77302,0.32448 1.15476,0.85892 0.38174,0.53443 0.53443,1.26928 0.0954,0.47717 0.0954,1.6701 v 6.23188 h -1.71782 v -6.16507 q 0,-1.04979 -0.20042,-1.56513 -0.20041,-0.52489 -0.71576,-0.83028 -0.5058,-0.31494 -1.19293,-0.31494 -1.0975,0 -1.89915,0.69668 -0.7921,0.69667 -0.7921,2.64353 v 5.53521 z m 14.62058,-1.5365 0.24813,1.51741 q -0.7253,0.1527 -1.29791,0.1527 -0.93526,0 -1.4506,-0.29585 -0.51535,-0.29585 -0.72531,-0.77302 -0.20995,-0.48672 -0.20995,-2.03276 v -5.83105 h -1.25974 v -1.33608 h 1.25974 v -2.50993 l 1.70828,-1.0307 v 3.54063 h 1.72736 v 1.33608 h -1.72736 v 5.92649 q 0,0.73484 0.0859,0.9448 0.0954,0.20996 0.29584,0.33402 0.20996,0.12407 0.5917,0.12407 0.2863,0 0.75393,-0.0668 z m 8.61774,-1.72736 1.77508,0.2195 q -0.41991,1.55558 -1.55558,2.41449 -1.13567,0.85891 -2.90121,0.85891 -2.22363,0 -3.53108,-1.36471 -1.29791,-1.37426 -1.29791,-3.84602 0,-2.55764 1.31699,-3.97007 1.317,-1.41244 3.41656,-1.41244 2.03276,0 3.32113,1.38381 1.28836,1.3838 1.28836,3.89373 0,0.15269 -0.01,0.45808 h -7.55842 q 0.0954,1.67011 0.9448,2.55765 0.84937,0.88754 2.11865,0.88754 0.9448,0 1.61284,-0.49626 0.66805,-0.49626 1.05933,-1.58421 z m -5.64018,-2.77715 h 5.65927 q -0.11453,-1.27882 -0.64896,-1.91823 -0.82074,-0.99252 -2.12819,-0.99252 -1.18339,0 -1.99458,0.7921 -0.80165,0.79211 -0.88754,2.11865 z m 9.553,6.04101 v -10.13515 h 1.54604 v 1.53649 q 0.5917,-1.07841 1.08796,-1.42197 0.5058,-0.34357 1.10704,-0.34357 0.86845,0 1.76554,0.55352 l -0.5917,1.59376 q -0.62987,-0.37219 -1.25974,-0.37219 -0.56306,0 -1.0116,0.34356 -0.44854,0.33402 -0.63941,0.93526 -0.28631,0.91617 -0.28631,2.00413 v 5.30616 z"
     id="path65" /></g>
                    <path
   d="m 427.66531,276.43922 q -1.42198,-1.79417 -2.40495,-4.19912 -0.98298,-2.40495 -0.98298,-4.98169 0,-2.27134 0.73485,-4.35181 0.85891,-2.4145 2.65308,-4.80991 h 1.23111 q -1.15476,1.98504 -1.52696,2.83441 -0.58215,1.317 -0.91617,2.74852 -0.41037,1.78462 -0.41037,3.58834 0,4.5904 2.8535,9.17126 z m 10.16378,-7.37709 1.77509,0.2195 q -0.41992,1.55558 -1.55559,2.41449 -1.13567,0.85891 -2.90121,0.85891 -2.22362,0 -3.53108,-1.36471 -1.29791,-1.37426 -1.29791,-3.84602 0,-2.55764 1.317,-3.97007 1.317,-1.41244 3.41656,-1.41244 2.03275,0 3.32112,1.38381 1.28837,1.3838 1.28837,3.89373 0,0.15269 -0.01,0.45808 h -7.55842 q 0.0954,1.67011 0.94481,2.55765 0.84936,0.88754 2.11864,0.88754 0.94481,0 1.61285,-0.49626 0.66804,-0.49626 1.05932,-1.58421 z m -5.64018,-2.77715 h 5.65927 q -0.11452,-1.27882 -0.64896,-1.91823 -0.82073,-0.99252 -2.12819,-0.99252 -1.18339,0 -1.99458,0.7921 -0.80165,0.79211 -0.88754,2.11865 z m 9.71524,6.04101 v -13.99071 h 5.2489 q 1.6033,0 2.56719,0.42946 0.97343,0.41991 1.51741,1.30745 0.55352,0.878 0.55352,1.84189 0,0.89708 -0.48672,1.68919 -0.48671,0.79211 -1.46969,1.27882 1.26928,0.3722 1.94687,1.26928 0.68713,0.89709 0.68713,2.11865 0,0.98298 -0.41992,1.83234 -0.41037,0.83983 -1.02115,1.29791 -0.61078,0.45809 -1.53649,0.69668 -0.91618,0.22904 -2.25226,0.22904 z m 1.85143,-8.11194 h 3.02527 q 1.23111,0 1.76554,-0.16224 0.70622,-0.20995 1.05933,-0.69667 0.36265,-0.48672 0.36265,-1.22156 0,-0.69668 -0.33402,-1.22157 -0.33402,-0.53443 -0.95435,-0.7253 -0.62032,-0.20041 -2.12819,-0.20041 h -2.79623 z m 0,6.46092 h 3.48336 q 0.89709,0 1.25974,-0.0668 0.63941,-0.11452 1.06886,-0.38174 0.42946,-0.26722 0.70622,-0.77302 0.27676,-0.51535 0.27676,-1.18339 0,-0.78256 -0.40082,-1.35517 -0.40083,-0.58215 -1.11659,-0.8112 -0.70622,-0.23858 -2.0423,-0.23858 h -3.23523 z m 11.26128,1.65102 v -13.99071 h 5.27753 q 1.39335,0 2.12819,0.13361 1.0307,0.17178 1.72737,0.6585 0.69667,0.47717 1.11658,1.34563 0.42946,0.86845 0.42946,1.90869 0,1.78462 -1.13567,3.02527 -1.13567,1.23111 -4.10369,1.23111 h -3.58834 v 5.6879 z m 1.85143,-7.33892 h 3.61697 q 1.79417,0 2.5481,-0.66804 0.75394,-0.66804 0.75394,-1.88006 0,-0.878 -0.44855,-1.49833 -0.439,-0.62986 -1.1643,-0.83028 -0.46763,-0.12406 -1.72736,-0.12406 h -3.5788 z m 11.28037,7.33892 v -13.99071 h 9.43848 v 1.65102 h -7.58705 v 4.33273 h 6.5659 v 1.65102 h -6.5659 v 6.35594 z m 17.05415,3.88419 v -14.01934 h 1.56513 v 1.31699 q 0.55352,-0.77302 1.25019,-1.15475 0.69668,-0.39129 1.6892,-0.39129 1.29791,0 2.29043,0.66805 0.99252,0.66804 1.49832,1.8896 0.5058,1.21202 0.5058,2.66263 0,1.55558 -0.56306,2.80577 -0.55352,1.24065 -1.62239,1.90869 -1.05932,0.6585 -2.23317,0.6585 -0.85891,0 -1.54604,-0.36265 -0.67758,-0.36265 -1.11658,-0.91617 v 4.93397 z m 1.55559,-8.89451 q 0,1.95641 0.7921,2.89167 0.79211,0.93526 1.91824,0.93526 1.14521,0 1.95641,-0.96389 0.82074,-0.97343 0.82074,-3.00619 0,-1.93732 -0.80165,-2.90121 -0.79211,-0.96389 -1.89915,-0.96389 -1.0975,0 -1.94687,1.0307 -0.83982,1.02115 -0.83982,2.97755 z m 9.29533,5.01032 v -10.13515 h 1.54604 v 1.53649 q 0.59169,-1.07841 1.08795,-1.42197 0.5058,-0.34357 1.10704,-0.34357 0.86846,0 1.76554,0.55352 l -0.59169,1.59376 q -0.62987,-0.37219 -1.25974,-0.37219 -0.56306,0 -1.01161,0.34356 -0.44854,0.33402 -0.63941,0.93526 -0.2863,0.91617 -0.2863,2.00413 v 5.30616 z m 5.88831,-5.06758 q 0,-2.81532 1.56513,-4.17049 1.30745,-1.12613 3.18751,-1.12613 2.09002,0 3.41656,1.37426 1.32654,1.36472 1.32654,3.77921 0,1.95641 -0.5917,3.08254 -0.58215,1.11658 -1.70828,1.73691 -1.11658,0.62032 -2.44312,0.62032 -2.12819,0 -3.44519,-1.36471 -1.30745,-1.36472 -1.30745,-3.93191 z m 1.76554,0 q 0,1.94687 0.84937,2.9203 0.84936,0.96389 2.13773,0.96389 1.27882,0 2.12819,-0.97343 0.84937,-0.97344 0.84937,-2.96802 0,-1.88006 -0.85891,-2.84395 -0.84937,-0.97343 -2.11865,-0.97343 -1.28837,0 -2.13773,0.96389 -0.84937,0.96389 -0.84937,2.91075 z m 9.42893,5.9074 1.67011,0.24813 q 0.10497,0.77302 0.58215,1.12613 0.63941,0.47717 1.74645,0.47717 1.19293,0 1.84189,-0.47717 0.64895,-0.47717 0.87799,-1.33608 0.13361,-0.52489 0.12407,-2.20454 -1.12613,1.32654 -2.80578,1.32654 -2.09001,0 -3.23523,-1.50787 -1.14521,-1.50786 -1.14521,-3.61697 0,-1.4506 0.52489,-2.67217 0.52489,-1.2311 1.51741,-1.89914 1.00206,-0.66805 2.34769,-0.66805 1.79417,0 2.95847,1.45061 v -1.22156 h 1.58421 v 8.76089 q 0,2.36678 -0.48671,3.34975 -0.47718,0.99252 -1.52696,1.56513 -1.04023,0.57261 -2.56719,0.57261 -1.81325,0 -2.92984,-0.82074 -1.11658,-0.81119 -1.07841,-2.45267 z m 1.42198,-6.08872 q 0,1.99458 0.7921,2.91075 0.79211,0.91617 1.98504,0.91617 1.18339,0 1.98504,-0.90662 0.80165,-0.91618 0.80165,-2.86304 0,-1.86098 -0.83028,-2.80578 -0.82074,-0.9448 -1.98504,-0.9448 -1.14521,0 -1.94686,0.93526 -0.80165,0.92571 -0.80165,2.75806 z m 9.74387,5.2489 v -10.13515 h 1.54604 v 1.53649 q 0.5917,-1.07841 1.08795,-1.42197 0.50581,-0.34357 1.10705,-0.34357 0.86845,0 1.76554,0.55352 l -0.5917,1.59376 q -0.62987,-0.37219 -1.25974,-0.37219 -0.56306,0 -1.0116,0.34356 -0.44854,0.33402 -0.63941,0.93526 -0.28631,0.91617 -0.28631,2.00413 v 5.30616 z m 13.14134,-1.25019 q -0.95435,0.81119 -1.84189,1.14521 -0.878,0.33402 -1.8896,0.33402 -1.67011,0 -2.56719,-0.81119 -0.89709,-0.82074 -0.89709,-2.09002 0,-0.74439 0.33402,-1.35517 0.34357,-0.62032 0.88755,-0.99252 0.55352,-0.37219 1.24065,-0.56306 0.5058,-0.13361 1.52695,-0.25768 2.08047,-0.24813 3.06345,-0.59169 0.01,-0.35311 0.01,-0.44854 0,-1.04978 -0.48671,-1.47924 -0.6585,-0.58215 -1.95641,-0.58215 -1.21202,0 -1.79417,0.42946 -0.57261,0.41991 -0.84937,1.49832 l -1.67965,-0.22905 q 0.22904,-1.07841 0.75393,-1.7369 0.52489,-0.66805 1.51741,-1.02115 0.99252,-0.36266 2.29998,-0.36266 1.29791,0 2.1091,0.3054 0.81119,0.30539 1.19293,0.77302 0.38174,0.45808 0.53444,1.1643 0.0859,0.439 0.0859,1.58421 v 2.29043 q 0,2.39541 0.10498,3.03482 0.11452,0.62987 0.43899,1.21202 h -1.79417 q -0.26721,-0.53443 -0.34356,-1.25019 z m -0.14315,-3.83647 q -0.93526,0.38173 -2.80578,0.64895 -1.05932,0.1527 -1.49832,0.34357 -0.439,0.19086 -0.67759,0.56306 -0.23858,0.36265 -0.23858,0.81119 0,0.68713 0.51534,1.14522 0.52489,0.45808 1.52696,0.45808 0.99252,0 1.76554,-0.42945 0.77302,-0.439 1.13567,-1.19293 0.27676,-0.58215 0.27676,-1.71783 z m 4.39953,5.08666 v -10.13515 h 1.5365 v 1.42197 q 0.47717,-0.74439 1.26928,-1.19293 0.7921,-0.45809 1.80371,-0.45809 1.12613,0 1.84189,0.46763 0.7253,0.46763 1.02115,1.30746 1.20247,-1.77509 3.13025,-1.77509 1.50787,0 2.31906,0.83983 0.81119,0.83028 0.81119,2.56719 v 6.95718 h -1.70827 v -6.38457 q 0,-1.0307 -0.17179,-1.47924 -0.16224,-0.45809 -0.60123,-0.73485 -0.439,-0.27676 -1.0307,-0.27676 -1.06887,0 -1.77508,0.71576 -0.70622,0.70622 -0.70622,2.27135 v 5.88831 H 547.722 V 265.741 q 0,-1.14521 -0.41991,-1.71782 -0.41991,-0.57261 -1.37426,-0.57261 -0.7253,0 -1.34563,0.38174 -0.61078,0.38174 -0.88754,1.11659 -0.27676,0.73484 -0.27676,2.11864 v 5.25845 z m 17.40727,4.11323 h -1.23111 q 2.8535,-4.58086 2.8535,-9.17126 0,-1.79417 -0.41037,-3.55971 -0.32448,-1.43152 -0.90663,-2.74852 -0.37219,-0.85891 -1.5365,-2.86304 h 1.23111 q 1.79417,2.39541 2.65308,4.80991 0.73485,2.08047 0.73485,4.35181 0,2.57674 -0.99252,4.98169 -0.98298,2.40495 -2.39541,4.19912 z"
   id="text51"
   style="font-size:19.545px;font-family:ArialMT, Arial, sans-serif"
   aria-label="(eBPF program)" />
                </g>
            </g><path
   d="m 648.00039,643.28109 c 0,-18.35135 -14.89907,-33.25001 -33.24967,-33.25001 h -194.5007 c -18.3506,0 -33.24967,14.89866 -33.24967,33.25001 v 66.50003 c 0,18.35134 14.89907,33.25001 33.24967,33.25001 h 194.5007 c 18.3506,0 33.24967,-14.89867 33.24967,-33.25001 z m -6.06441,0 v 66.50003 c 0,15.00417 -12.1816,27.18609 -27.18526,27.18609 0,0 -194.5007,0 -194.5007,0 -15.00366,0 -27.18526,-12.18192 -27.18526,-27.18609 0,0 0,-66.50003 0,-66.50003 0,-15.00418 12.1816,-27.1861 27.18526,-27.1861 h 194.5007 c 15.00366,0 27.18526,12.18192 27.18526,27.1861 z"
   style="fill:#b2b2b2;fill-opacity:0.9775;stroke-width:0.922393"
   id="path52" />
        <g
   transform="matrix(0,0.65297548,-1,0,699.5,-174.61318)"
   id="g54"
   style="fill:#8c8c8c;fill-opacity:0.955">
                <path
   d="M 480.402,189.54 V 196 L 455,187.5 480.402,179 v 6.46 h 163.747 v 4.08 z"
   style="fill:#b2b2b2;fill-opacity:0.9775"
   id="path53" />
            </g><g
   transform="matrix(-0.64165693,0,0,-1,1158.9339,855.611)"
   id="g55"
   style="fill:#b2b2b2;fill-opacity:0.9775">
                <path
   d="m 477.422,189.62 v 6.46 l -25.402,-8.5 25.402,-8.5 v 6.46 l 318.85,-0.08 v 4.08 h -0.122 z"
   style="fill:#b2b2b2;fill-opacity:0.9775"
   id="path54" />
            </g>
        <g
   id="Layer6">
        </g>
    <path
   style="font-size:37.3333px;font-family:'Miriam Libre';-inkscape-font-specification:'Miriam Libre';white-space:pre;fill:#8c8c8c;stroke:#8c8c8c;stroke-width:1.056"
   d="m 949.78054,545.94725 -0.41876,5.3971 c -0.0231,0.29778 0.18289,0.53843 0.48066,0.56154 l 1.71219,0.13285 c 0.29777,0.0231 0.53843,-0.1829 0.56153,-0.48067 l 0.41877,-5.39711 c 0.22238,-2.86605 2.70916,-4.99472 5.57521,-4.77234 l 1.63775,0.12708 -0.92418,11.91085 c -0.0578,0.74443 0.49158,1.38618 1.23601,1.44394 l 2.53105,0.19639 c 4.5038,0.34945 8.39441,-2.98089 8.74098,-7.44746 0.34656,-4.46657 -2.98377,-8.35719 -7.48757,-8.70664 l -5.32266,-0.41299 c -4.50379,-0.34945 -8.39441,2.98089 -8.74098,7.44746 z m 12.64729,-4.22361 1.37719,0.10685 c 2.86605,0.22238 4.99472,2.70917 4.77234,5.57522 -0.22238,2.86605 -2.70916,4.99472 -5.57521,4.77234 l -1.37719,-0.10686 z m -14.5634,23.4657 -0.26217,2.11179 c -0.0368,0.29639 0.11165,0.61577 0.39425,0.76372 l 18.80826,9.40749 c 0.42619,0.20339 0.82888,-0.01 0.88407,-0.45455 l 0.20238,-1.63015 c 0.0368,-0.29639 -0.11166,-0.61578 -0.39425,-0.76372 l -16.18138,-7.83992 17.621,-3.75638 c 0.31019,-0.0743 0.53223,-0.34775 0.56903,-0.64414 l 0.21157,-1.70425 c 0.0552,-0.44458 -0.2831,-0.74992 -0.74608,-0.65692 l -20.53766,4.52289 c -0.31019,0.0743 -0.53223,0.34775 -0.56902,0.64414 z m -3.06747,20.94264 -0.91139,5.33606 c -0.0503,0.2944 0.13281,0.55292 0.42721,0.6032 l 1.69282,0.28913 c 0.2944,0.0503 0.55292,-0.13281 0.6032,-0.42721 l 0.91139,-5.33606 c 0.48398,-2.83362 3.1553,-4.72555 5.98893,-4.24157 l 1.61922,0.27656 -2.01134,11.77612 c -0.12571,0.73601 0.36253,1.42538 1.09853,1.55109 l 2.50243,0.42741 c 4.45285,0.76054 8.63217,-2.19941 9.38643,-6.61545 0.75425,-4.41605 -2.2057,-8.59538 -6.65855,-9.35592 l -5.26245,-0.89881 c -4.45285,-0.76054 -8.63217,2.19941 -9.38643,6.61545 z m 12.98101,-3.04734 1.36161,0.23256 c 2.83363,0.48398 4.72556,3.1553 4.24158,5.98893 -0.48398,2.83363 -3.1553,4.72556 -5.98893,4.24158 l -1.36162,-0.23256 z m -15.49871,16.97349 -0.40342,1.82255 c -0.0645,0.29161 0.10575,0.55873 0.39736,0.62327 l 11.91949,2.63834 c 3.82736,0.84717 5.51418,3.59123 4.81224,6.76247 -0.58898,2.66093 -2.60431,4.16492 -5.77555,3.46298 l -13.15883,-2.91265 c -0.2916,-0.0646 -0.55872,0.10575 -0.62327,0.39735 l -0.40341,1.82256 c -0.0645,0.2916 0.10575,0.55872 0.39736,0.62327 l 13.70559,3.03368 c 4.11896,0.91172 7.50243,-1.24537 8.42222,-5.40079 0.54864,-2.47867 -0.004,-4.81874 -1.72644,-6.53829 l 2.00481,0.44376 c 0.2916,0.0645 0.55872,-0.10575 0.62327,-0.39736 l 0.40341,-1.82255 c 0.0645,-0.29161 -0.10575,-0.55872 -0.39736,-0.62327 l -19.5742,-4.33268 c -0.29161,-0.0645 -0.55873,0.10575 -0.62327,0.39736 z m -6.6545,27.54084 -0.96576,3.60625 c -0.0773,0.2885 0.0812,0.56282 0.36967,0.64009 l 1.65888,0.44424 c 0.2885,0.0773 0.56282,-0.0812 0.64008,-0.36967 l 0.9149,-3.27203 c 0.5286,-1.82953 2.08308,-2.7273 3.95834,-2.22511 l 11.90063,3.187 -1.69973,6.34701 c -0.0773,0.2885 0.0812,0.56282 0.36967,0.64008 l 1.65888,0.44425 c 0.2885,0.0773 0.56282,-0.0812 0.64008,-0.36967 l 1.69973,-6.34701 3.78657,1.01405 c 0.2885,0.0773 0.56282,-0.0812 0.64008,-0.36967 l 0.48288,-1.80313 c 0.0773,-0.2885 -0.0812,-0.56282 -0.36967,-0.64008 l -3.78657,-1.01404 0.6374,-2.38013 c 0.0773,-0.2885 -0.0812,-0.56282 -0.36967,-0.64008 l -1.62281,-0.43459 c -0.2885,-0.0773 -0.56282,0.0812 -0.64008,0.36967 l -0.6374,2.38012 -12.26127,-3.28357 c -3.02925,-0.81124 -6.03907,0.46977 -7.00483,4.07602 z"
   id="text57"
   aria-label="event" /><path
   d="m 578.17516,77.528273 5.35066,0.821313 c 0.29521,0.04531 0.5506,-0.142108 0.59591,-0.437317 l 0.26056,-1.697451 c 0.0453,-0.295209 -0.14211,-0.550601 -0.43732,-0.595914 l -5.35066,-0.821313 c -2.84139,-0.436145 -4.77807,-3.075196 -4.34193,-5.916582 l 0.24923,-1.623649 11.80835,1.812553 c 0.73803,0.113284 1.41907,-0.386506 1.53236,-1.124528 l 0.38516,-2.509276 c 0.68537,-4.465034 -2.3446,-8.593872 -6.77274,-9.273579 -4.42813,-0.679707 -8.55697,2.350271 -9.24234,6.815305 l -0.80998,5.276859 c -0.68537,4.465035 2.3446,8.593872 6.77274,9.273579 z m -3.26573,-12.927793 0.20958,-1.365341 c 0.43614,-2.841385 3.07519,-4.778072 5.91658,-4.341927 2.84139,0.436146 4.77807,3.075197 4.34193,5.916582 l -0.20958,1.365341 z m 22.31045,16.277861 2.08626,0.419401 c 0.29281,0.05886 0.6224,-0.06528 0.79107,-0.336013 l 10.78805,-18.051868 c 0.2347,-0.409781 0.0521,-0.827296 -0.38714,-0.915591 l -1.61045,-0.323749 c -0.29281,-0.05886 -0.62241,0.06528 -0.79107,0.336014 l -9.02837,15.5496 -2.42776,-17.852627 c -0.0509,-0.314882 -0.30696,-0.55675 -0.59977,-0.615613 l -1.68365,-0.338464 c -0.43921,-0.0883 -0.76899,0.22621 -0.71089,0.694854 l 2.97395,20.818443 c 0.0509,0.314882 0.30696,0.55675 0.59977,0.615613 z m 20.65437,4.625367 5.25293,1.307986 c 0.28982,0.07216 0.56131,-0.09108 0.63347,-0.380892 l 0.41495,-1.666447 c 0.0722,-0.289817 -0.0911,-0.561303 -0.38089,-0.633468 l -5.25293,-1.307986 c -2.78949,-0.694586 -4.4763,-3.499945 -3.78171,-6.289433 l 0.3969,-1.593993 11.59268,2.88659 c 0.72455,0.180412 1.44851,-0.254892 1.62892,-0.979435 l 0.6134,-2.463444 c 1.09149,-4.383482 -1.54754,-8.77251 -5.89479,-9.854981 -4.34726,-1.082472 -8.73629,1.556561 -9.82778,5.940043 l -1.28994,5.180478 c -1.0915,4.383482 1.54754,8.77251 5.89479,9.854982 z m -2.06779,-13.172586 0.33376,-1.340403 c 0.69458,-2.789489 3.49994,-4.476293 6.28943,-3.781707 2.78949,0.694585 4.47629,3.499944 3.78171,6.289432 l -0.33376,1.340403 z m 15.7665,16.724927 1.78727,0.538615 c 0.28596,0.08618 0.56507,-0.06366 0.65125,-0.349623 l 3.52254,-11.688742 c 1.13109,-3.753265 3.99365,-5.230105 7.10349,-4.292914 2.60942,0.786378 3.95845,2.908563 3.02126,6.018412 l -3.8888,12.904085 c -0.0862,0.285963 0.0637,0.565069 0.34962,0.651248 l 1.78727,0.538615 c 0.28596,0.08618 0.56507,-0.06366 0.65125,-0.349623 l 4.05039,-13.440266 c 1.21727,-4.039228 -0.68069,-7.574573 -4.75566,-8.802617 -2.43069,-0.732517 -4.80555,-0.35644 -6.64911,1.232525 l 0.59248,-1.965996 c 0.0862,-0.285963 -0.0637,-0.565069 -0.34963,-0.651248 l -1.78727,-0.538615 c -0.28596,-0.08618 -0.56507,0.06366 -0.65124,0.349623 l -5.78473,19.195273 c -0.0862,0.285963 0.0637,0.565069 0.34962,0.651248 z m 26.96573,8.695955 3.52391,1.232806 c 0.28192,0.09862 0.56732,-0.03884 0.66594,-0.320755 l 0.56709,-1.620998 c 0.0986,-0.281913 -0.0388,-0.567316 -0.32075,-0.665941 l -3.19443,-1.157092 c -1.78487,-0.663971 -2.56384,-2.281254 -1.92278,-4.113687 l 4.06826,-11.628904 6.20208,2.169739 c 0.28191,0.09862 0.56731,-0.03884 0.66594,-0.320755 l 0.56709,-1.620999 c 0.0986,-0.281912 -0.0388,-0.567315 -0.32075,-0.66594 l -6.20209,-2.169739 1.29445,-3.700105 c 0.0986,-0.281913 -0.0388,-0.567316 -0.32075,-0.665941 l -1.76196,-0.616403 c -0.28191,-0.09862 -0.56732,0.03884 -0.66594,0.320755 l -1.29445,3.700106 -2.32578,-0.813652 c -0.28191,-0.09862 -0.56731,0.03884 -0.66594,0.320754 l -0.55476,1.58576 c -0.0986,0.281913 0.0388,0.567316 0.32075,0.66594 l 2.32579,0.813652 -4.19155,11.981295 c -1.03555,2.960084 0.0167,6.057298 3.54063,7.290104 z"
   id="text58"
   style="font-size:37.3333px;font-family:'Miriam Libre';-inkscape-font-specification:'Miriam Libre';white-space:pre;fill:#8c8c8c;stroke:#8c8c8c;stroke-width:1.056"
   aria-label="event" /><path
   d="m 795.624,177.27072 c 0.96785,0.82127 2.44124,0.70055 3.28666,-0.29576 0.84542,-0.99632 0.7247,-2.4697 -0.24315,-3.29097 -1.02478,-0.86957 -2.49816,-0.74886 -3.34358,0.24746 -0.84542,0.99631 -0.72471,2.4697 0.30007,3.33927 z m 14.39256,12.76779 c 0.93094,0.86288 2.4082,0.80683 3.29646,-0.15149 0.88826,-0.95831 0.83221,-2.43558 -0.0987,-3.29845 -0.9857,-0.91364 -2.46296,-0.85759 -3.35121,0.10072 -0.88826,0.95832 -0.83221,2.43558 0.15348,3.34922 z m 13.81934,13.38608 c 0.89224,0.90284 2.37054,0.91157 3.29993,-0.007 0.92939,-0.91848 0.93812,-2.39678 0.0459,-3.29962 -0.94472,-0.95595 -2.42302,-0.96467 -3.35241,-0.0462 -0.92939,0.91848 -0.93812,2.39677 0.007,3.35272 z"
   id="text59"
   style="font-size:37.3333px;font-family:'Miriam Libre';-inkscape-font-specification:'Miriam Libre';white-space:pre;fill:#8c8c8c;stroke:#8c8c8c;stroke-width:1.056"
   aria-label=". . ." /><path
   d="m 918.88753,348.2447 c 0.47356,1.17769 1.83341,1.75757 3.04573,1.27008 1.21233,-0.48748 1.7922,-1.84733 1.31865,-3.02501 -0.50141,-1.24697 -1.86126,-1.82684 -3.07358,-1.33936 -1.21233,0.48748 -1.79221,1.84733 -1.2908,3.09429 z m 6.78341,18.00409 c 0.4215,1.19731 1.75464,1.8362 2.98716,1.40231 1.23252,-0.4339 1.87142,-1.76704 1.44992,-2.96434 -0.4463,-1.26774 -1.77944,-1.90664 -3.01196,-1.47274 -1.23252,0.4339 -1.87141,1.76704 -1.42512,3.03477 z m 5.98807,18.28398 c 0.36864,1.21462 1.6725,1.91131 2.92285,1.53183 1.25035,-0.37948 1.94704,-1.68335 1.5784,-2.89797 -0.39032,-1.28607 -1.69419,-1.98276 -2.94454,-1.60328 -1.25034,0.37948 -1.94703,1.68334 -1.55671,2.96942 z"
   id="text60"
   style="font-size:37.3333px;font-family:'Miriam Libre';-inkscape-font-specification:'Miriam Libre';white-space:pre;fill:#8c8c8c;stroke:#8c8c8c;stroke-width:1.056"
   aria-label=". . ." /><path
   d="m 636.23787,933.99334 c -2.76813,0.77534 -4.81426,2.74418 -5.68404,5.31401 l -0.69479,-2.48053 c -0.0806,-0.2876 -0.35667,-0.44288 -0.64426,-0.36232 l -1.50989,0.42291 c -0.2876,0.0806 -0.44288,0.35667 -0.36233,0.64427 l 3.86666,13.80469 c 1.09756,3.91852 4.80639,5.67114 9.19225,4.44267 3.23548,-0.90624 5.30316,-3.07497 6.009,-5.67642 0.0316,-0.16394 0.0374,-0.28186 0.007,-0.38971 -0.0705,-0.25164 -0.22868,-0.40119 -0.49472,-0.52052 l -1.1519,-0.37522 c -0.174,-0.0676 -0.37389,-0.0891 -0.51769,-0.0488 -0.2876,0.0806 -0.4889,0.33079 -0.58809,0.66873 -0.46002,1.67965 -1.78,3.0574 -3.93698,3.66157 -2.62433,0.73506 -5.13233,-0.1908 -5.78684,-2.52753 l -0.0806,-0.2876 c -0.39271,-1.40204 -0.009,-2.24619 1.33279,-2.8546 1.48542,-0.64868 2.83712,-1.22114 4.49222,-1.95612 3.65963,-1.6066 5.32029,-4.39796 4.43419,-7.56153 -0.9566,-3.41523 -4.2153,-4.94499 -7.88217,-3.91791 z m 0.41726,2.59703 c 2.30078,-0.64444 4.24507,0.2067 4.79889,2.18393 0.5236,1.86939 -0.37646,3.36214 -2.64845,4.38622 -2.82705,1.25709 -4.16867,1.86549 -6.29112,2.73137 l -0.41284,-1.47394 c -0.73507,-2.62433 0.81475,-6.78036 4.55352,-7.82758 z m -30.65346,5.36856 -2.08389,0.43103 c -0.29248,0.0605 -0.54714,0.30379 -0.59633,0.61895 l -2.85783,20.8347 c -0.0555,0.46896 0.27604,0.78162 0.71475,0.69088 l 1.60862,-0.33272 c 0.29247,-0.0605 0.54714,-0.30379 0.59632,-0.61895 l 2.21851,-17.8432 9.2246,15.47634 c 0.17018,0.26979 0.50046,0.39209 0.79294,0.33159 l 1.68173,-0.34784 c 0.43872,-0.0907 0.61901,-0.50927 0.38203,-0.91774 L 606.7946,942.29053 c -0.17017,-0.26979 -0.50046,-0.39209 -0.79293,-0.3316 z m -29.11247,4.59963 c -2.84858,0.3864 -5.14656,2.05442 -6.36224,4.47983 l -0.34625,-2.55262 c -0.0401,-0.29595 -0.29223,-0.48781 -0.58818,-0.44767 l -1.55377,0.21077 c -0.29596,0.0401 -0.48781,0.29222 -0.44767,0.58818 l 1.92698,14.20588 c 0.54698,4.03241 3.97883,6.2795 8.49216,5.66729 3.32951,-0.45164 5.67638,-2.31467 6.73405,-4.794 0.0539,-0.15801 0.0759,-0.27402 0.0608,-0.385 -0.0351,-0.25896 -0.1712,-0.42888 -0.41826,-0.58374 l -1.08917,-0.53041 c -0.16304,-0.0909 -0.35805,-0.13981 -0.50602,-0.11974 -0.29596,0.0402 -0.52983,0.26025 -0.67466,0.58129 -0.68714,1.60022 -2.18443,2.78288 -4.4041,3.08397 -2.70059,0.36632 -5.05704,-0.89639 -5.38322,-3.30104 l -0.0402,-0.29595 c -0.1957,-1.44279 0.30086,-2.22597 1.71354,-2.64365 1.56065,-0.43775 2.97835,-0.81843 4.71896,-1.31826 3.84614,-1.08685 5.87571,-3.62266 5.43411,-6.87818 -0.47673,-3.51448 -3.49347,-5.4788 -7.26691,-4.96695 z m 0.0553,2.62976 c 2.36765,-0.32116 4.17606,0.78984 4.45206,2.82454 0.26095,1.92371 -0.83628,3.27815 -3.22774,3.9793 -2.97333,0.85542 -4.38601,1.2731 -6.60754,1.83817 l -0.20575,-1.51678 c -0.36633,-2.7006 1.74155,-6.60334 5.58897,-7.12523 z m -27.33705,24.92764 -1.78743,0.12787 c -0.2979,0.0213 -0.50535,0.26073 -0.48404,0.55863 l 0.23178,3.23972 c 0.0213,0.2979 0.26072,0.50535 0.55863,0.48403 l 1.78743,-0.12787 c 0.2979,-0.0213 0.50535,-0.26072 0.48403,-0.55863 l -0.23177,-3.23972 c -0.0213,-0.2979 -0.26072,-0.50535 -0.55863,-0.48403 z m -2.49765,-23.92541 -5.39952,0.38628 c -0.29791,0.0213 -0.50535,0.26073 -0.48404,0.55863 l 0.12255,1.71296 c 0.0213,0.2979 0.26072,0.50535 0.55863,0.48403 l 3.83552,-0.27439 1.21481,16.98058 c 0.0533,0.74477 0.69171,1.29795 1.43648,1.24467 l 5.43676,-0.38895 c 0.29791,-0.0213 0.50535,-0.26073 0.48404,-0.55863 l -0.12255,-1.71295 c -0.0213,-0.29791 -0.26072,-0.50535 -0.55863,-0.48404 l -3.87276,0.27706 -1.21481,-16.98059 c -0.0533,-0.74476 -0.69171,-1.29795 -1.43648,-1.24466 z m -23.19549,1.04006 -5.52454,0.0936 c -0.29862,0.005 -0.5188,0.23282 -0.51374,0.53144 l 0.0291,1.71709 c 0.005,0.29862 0.23282,0.51879 0.53144,0.51374 l 3.95676,-0.067 0.41025,24.22584 c 0.0127,0.74656 0.62001,1.33369 1.36657,1.32105 l 5.03927,-0.0853 c 0.29862,-0.005 0.5188,-0.23281 0.51374,-0.53144 l -0.0291,-1.71708 c -0.005,-0.29863 -0.23281,-0.5188 -0.53144,-0.51375 l -3.4715,0.0588 -0.41025,-24.22584 c -0.0126,-0.74656 -0.62,-1.33369 -1.36656,-1.32105 z m -25.62165,-0.75741 c -2.8718,-0.1283 -5.43063,1.10273 -7.05974,3.27218 l 0.11497,-2.57343 c 0.0133,-0.29837 -0.20045,-0.53215 -0.49882,-0.54548 l -1.56643,-0.07 c -0.29837,-0.0133 -0.53215,0.20045 -0.54548,0.49882 l -0.63982,14.3217 c -0.18162,4.06528 2.79399,6.88889 7.34412,7.09217 3.35664,0.14996 5.99839,-1.26421 7.48165,-3.51492 0.0813,-0.14585 0.12355,-0.25607 0.12855,-0.36796 0.0117,-0.26107 -0.0919,-0.45255 -0.30734,-0.64903 l -0.977,-0.71632 c -0.14419,-0.11855 -0.32733,-0.20148 -0.47652,-0.20814 -0.29837,-0.0133 -0.56777,0.16149 -0.76758,0.45152 -0.96176,1.45186 -2.64611,2.34825 -4.88387,2.24827 -2.72262,-0.12163 -4.81581,-1.78471 -4.70751,-4.20895 l 0.0133,-0.29837 c 0.065,-1.45455 0.69338,-2.13652 2.15792,-2.29531 1.61373,-0.15213 3.07661,-0.27363 4.87849,-0.45472 3.97838,-0.38283 6.42801,-2.51562 6.57463,-5.79768 0.15829,-3.54313 -2.45935,-6.01442 -6.26355,-6.18437 z m -0.41501,2.5974 c 2.38695,0.10664 3.968,1.52261 3.87636,3.57389 -0.0867,1.9394 -1.40803,3.07623 -3.88624,3.33922 -3.07827,0.31092 -4.54282,0.46971 -6.82954,0.62915 l 0.0683,-1.52914 c 0.12164,-2.72262 2.89232,-6.18641 6.77111,-6.01312 z m -33.81815,-5.31448 c -4.26427,-0.49869 -8.15746,2.57927 -8.65615,6.84354 l -0.75453,6.45202 c -0.49868,4.26427 2.57928,8.15747 6.84355,8.65615 2.15067,0.25151 4.23303,-0.51983 5.79147,-1.95385 l -1.02338,8.75102 c -0.0347,0.29664 0.16177,0.54514 0.45842,0.57984 l 1.85403,0.21681 c 0.29664,0.0347 0.54514,-0.16177 0.57983,-0.45841 l 3.1699,-27.10593 c 0.0347,-0.29664 -0.16178,-0.54514 -0.45842,-0.57983 l -1.70571,-0.19948 c -0.29664,-0.0347 -0.54515,0.16178 -0.57984,0.45842 l -0.16912,1.44615 c -1.23127,-1.68509 -3.12521,-2.84627 -5.35005,-3.10645 z m -0.0242,2.77865 c 2.89228,0.33824 4.92243,2.90609 4.58852,5.7613 l -0.71983,6.15538 c -0.33391,2.85521 -2.90176,4.88535 -5.79405,4.54711 -2.8552,-0.3339 -4.88534,-2.90175 -4.55144,-5.75696 l 0.71984,-6.15538 c 0.3339,-2.85521 2.90175,-4.88535 5.75696,-4.55145 z m -25.94994,-6.16127 -5.43678,-0.98521 c -0.29388,-0.0533 -0.55423,0.12721 -0.60749,0.42109 l -0.30621,1.68981 c -0.0533,0.29388 0.12721,0.55423 0.42109,0.60749 l 3.89391,0.70563 -4.32032,23.84102 c -0.13313,0.7347 0.34812,1.42897 1.08282,1.56211 l 4.95922,0.89868 c 0.29388,0.0533 0.55423,-0.12721 0.60749,-0.42109 l 0.30622,-1.68982 c 0.0533,-0.29388 -0.12722,-0.55423 -0.4211,-0.60748 l -3.41635,-0.61909 4.32032,-23.84103 c 0.13313,-0.7347 -0.34812,-1.42897 -1.08282,-1.56211 z m -27.16475,-5.77395 -5.25724,-1.29054 c -0.29006,-0.0712 -0.561,0.0929 -0.6322,0.38299 l -0.40941,1.66781 c -0.0712,0.29006 0.0929,0.561 0.38299,0.6322 l 5.25724,1.29055 c 2.79178,0.68532 4.48789,3.48507 3.80256,6.27684 l -0.39161,1.59531 -11.6022,-2.8481 c -0.72513,-0.17801 -1.44765,0.2597 -1.62565,0.98484 l -0.60522,2.46546 c -1.07694,4.38708 1.57665,8.76733 5.92747,9.83536 4.35082,1.06804 8.73107,-1.58555 9.808,-5.97263 l 1.27275,-5.18473 c 1.07693,-4.38708 -1.57665,-8.76732 -5.92748,-9.83536 z m 2.11151,13.16565 -0.32931,1.3415 c -0.68533,2.79178 -3.48507,4.48789 -6.27685,3.80257 -2.79178,-0.68533 -4.48788,-3.48507 -3.80256,-6.27685 l 0.32931,-1.3415 z m -48.76416,-27.81774 c -4.1335,-1.52353 -7.66631,-0.35877 -9.00908,3.28431 -1.30404,3.53799 1.00591,5.58304 3.85971,7.98771 1.94494,1.632 3.64287,2.85466 2.77781,5.20164 -0.69721,1.8916 -2.42488,2.36889 -4.7018,1.52966 -1.50628,-0.55519 -2.74882,-1.60999 -3.81802,-2.91921 -0.21568,-0.27844 -0.54756,-0.24161 -0.74303,-0.0351 l -1.22995,1.17799 c -0.18256,0.17144 -0.20288,0.44247 -0.0665,0.61212 1.16687,1.58395 2.94407,2.9154 4.94076,3.65134 3.53799,1.30404 7.00804,0.6334 8.40246,-3.1498 1.30404,-3.53799 -0.58185,-5.54611 -3.75642,-8.26795 -2.23068,-1.93626 -3.5654,-3.06483 -2.86819,-4.95643 0.74885,-2.03172 2.73835,-2.57166 5.15539,-1.68079 1.78651,0.65848 3.10832,1.82208 4.14249,3.11839 0.0922,0.0738 0.14933,0.13461 0.25441,0.17335 0.17515,0.0645 0.38903,0.024 0.55868,-0.11239 l 1.2779,-1.20011 c 0.14752,-0.18436 0.16784,-0.45539 0.0314,-0.62503 -1.10603,-1.6411 -3.10631,-3.01499 -5.20809,-3.78966 z m -18.64302,-14.70007 -1.70361,-0.763 c -0.27257,-0.12207 -0.56856,-0.009 -0.69064,0.26338 l -3.40295,7.59809 c -0.77946,-1.82173 -2.26483,-3.34602 -4.1388,-4.18531 -3.98644,-1.7854 -8.58958,-0.002 -10.34446,3.91651 l -2.65521,5.92856 c -1.75489,3.9183 0.0135,8.55551 3.93177,10.31039 2.04433,0.91559 4.26572,0.88782 6.26242,-0.0996 l -0.67144,1.49918 c -0.12208,0.27258 -0.009,0.56857 0.26338,0.69065 l 1.56732,0.70195 c 0.27257,0.12208 0.56856,0.009 0.69064,-0.26337 l 11.15496,-24.90675 c 0.12207,-0.27258 0.009,-0.56857 -0.26338,-0.69065 z m -10.82672,5.54132 c 2.65763,1.19027 3.82399,4.24885 2.64898,6.87241 l -2.53313,5.65598 c -1.17501,2.62355 -4.2336,3.78992 -6.89122,2.59965 -2.62356,-1.17501 -3.78992,-4.2336 -2.61492,-6.85715 l 2.53314,-5.65598 c 1.17501,-2.62356 4.23359,-3.78992 6.85715,-2.61491 z M 309.90661,899.5363 c -2.53254,-1.36012 -5.37209,-1.35955 -7.78041,-0.11036 l 1.2188,-2.26942 c 0.14131,-0.26312 0.0499,-0.56645 -0.21317,-0.70776 l -1.38138,-0.74188 c -0.26313,-0.14131 -0.56645,-0.0499 -0.70776,0.21317 l -6.78292,12.62983 c -1.92535,3.58503 -0.46727,7.41922 3.54534,9.57421 2.96011,1.58975 5.95375,1.46005 8.26585,0.0744 0.13643,-0.0962 0.22231,-0.17724 0.27531,-0.27591 0.12364,-0.23024 0.11329,-0.44768 0.004,-0.71811 l -0.57009,-1.06895 c -0.0786,-0.16933 -0.20769,-0.32342 -0.33925,-0.39408 -0.26312,-0.14131 -0.58167,-0.10051 -0.88743,0.0743 -1.49592,0.89167 -3.40235,0.96961 -5.37576,-0.0902 -2.40098,-1.28946 -3.56673,-3.69536 -2.41858,-5.83322 l 0.14131,-0.26312 c 0.68889,-1.28272 1.55074,-1.62501 2.93944,-1.13346 1.52027,0.56221 2.8913,1.08664 4.59368,1.70428 3.75131,1.37901 6.88323,0.51842 8.43764,-2.37591 1.67807,-3.12457 0.38991,-6.48611 -2.96489,-8.28782 z m -1.49959,2.161 c 2.10497,1.13048 2.91624,3.09174 1.94473,4.9007 -0.91852,1.71029 -2.60203,2.1622 -4.94942,1.32529 -2.90896,-1.05375 -4.29766,-1.5453 -6.42761,-2.39256 l 0.72422,-1.3485 c 1.28946,-2.40098 5.2875,-4.32197 8.70808,-2.48493 z m -27.10511,-18.76498 c -1.86568,-1.17088 -3.96646,-1.47555 -5.90236,-1.05967 -0.20587,0.0471 -0.36834,0.16552 -0.46757,0.32363 -0.11907,0.18973 -0.15506,0.38753 -0.10795,0.5934 0.0744,0.44336 0.1568,0.80363 0.27085,1.18374 0.0787,0.22572 0.19715,0.38819 0.35525,0.48741 0.18973,0.11908 0.38753,0.15506 0.64487,0.0962 1.24699,-0.23116 2.56834,-0.019 3.73834,0.71531 2.43488,1.5281 3.16501,4.71907 1.6369,7.15394 l -3.29434,5.24921 c -1.5281,2.43487 -4.71907,3.165 -7.15394,1.6369 -1.17,-0.73428 -1.93568,-1.83189 -2.26978,-3.05532 -0.0589,-0.25734 -0.1773,-0.41981 -0.36703,-0.53888 -0.15811,-0.0992 -0.35591,-0.13522 -0.5934,-0.10796 -0.44336,0.0744 -0.80363,0.1568 -1.18374,0.27086 -0.22572,0.0787 -0.38819,0.19714 -0.48742,0.35525 -0.0992,0.15811 -0.13521,0.35591 -0.0881,0.56178 0.46734,1.92413 1.65523,3.68339 3.52091,4.85427 3.7946,2.38146 8.78692,1.23916 11.18822,-2.58706 l 3.09589,-4.93299 c 2.4013,-3.82623 1.25901,-8.81855 -2.5356,-11.2 z m -23.79816,-15.554 -4.38068,-3.18022 c -0.24169,-0.17546 -0.55456,-0.12579 -0.73002,0.1159 l -1.0089,1.38973 c -0.17546,0.2417 -0.12578,0.55456 0.11591,0.73002 l 4.38068,3.18022 c 2.32629,1.68881 2.83959,4.92174 1.15078,7.24803 l -0.96503,1.32931 -9.6677,-7.01841 c -0.60423,-0.43865 -1.43854,-0.30619 -1.87719,0.29804 l -1.49141,2.05439 c -2.65384,3.6556 -1.85078,8.71358 1.77461,11.34548 3.62539,2.63191 8.68337,1.82884 11.33721,-1.82676 l 3.13635,-4.32025 c 2.65384,-3.6556 1.85077,-8.71358 -1.77461,-11.34548 z m -3.01641,12.98822 -0.8115,1.11783 c -1.68881,2.32629 -4.92174,2.83959 -7.24803,1.15079 -2.32629,-1.68881 -2.83959,-4.92174 -1.15078,-7.24804 l 0.8115,-1.11782 z"
   id="text61"
   style="font-size:37.3333px;font-family:'Miriam Libre';-inkscape-font-specification:'Miriam Libre';white-space:pre;fill:#8c8c8c;stroke:#8c8c8c;stroke-width:1.056"
   aria-label="a v a i l a b l e   s p a c e" /><path
   d="m 79.607323,561.6238 c -0.313154,-2.85756 -1.92164,-5.19759 -4.315052,-6.47513 l 2.560668,-0.28062 c 0.296889,-0.0325 0.495154,-0.2796 0.462618,-0.57649 l -0.170811,-1.55867 c -0.03254,-0.29689 -0.279604,-0.49515 -0.576493,-0.46262 l -14.250671,1.56171 c -4.045112,0.44329 -6.379557,3.81633 -5.88339,8.34389 0.366024,3.34 2.168199,5.73393 4.619565,6.85489 0.156579,0.058 0.271979,0.0829 0.383312,0.0707 0.259778,-0.0285 0.433133,-0.16014 0.594287,-0.40314 l 0.558193,-1.0752 c 0.09507,-0.16065 0.148953,-0.35434 0.132685,-0.50278 -0.03254,-0.29689 -0.246559,-0.53633 -0.563783,-0.68935 -1.582052,-0.72799 -2.725886,-2.25514 -2.969903,-4.48181 -0.296886,-2.70911 1.025899,-5.03237 3.438121,-5.29672 l 0.296889,-0.0325 c 1.447334,-0.15862 2.217517,0.35789 2.598794,1.78082 0.397545,1.57138 0.741711,2.99838 1.196702,4.75124 0.987763,3.87278 3.470647,5.96676 6.736426,5.60887 3.525557,-0.38636 5.566671,-3.35169 5.151843,-7.13702 z m -2.630314,-0.0122 c 0.260284,2.37511 -0.896771,4.15441 -2.937883,4.37809 -1.929778,0.21148 -3.25561,-0.92016 -3.895139,-3.32882 -0.778823,-2.99431 -1.1601,-4.41724 -1.667961,-6.65255 l 1.521556,-0.16675 c 2.709112,-0.29688 6.556465,1.91047 6.979427,5.77003 z m -0.293531,-31.11866 -0.08513,-2.1263 c -0.01195,-0.29843 -0.210413,-0.58939 -0.513321,-0.68935 L 55.996136,521.4573 c -0.453615,-0.13129 -0.816194,0.14476 -0.798272,0.59241 l 0.06571,1.64135 c 0.01195,0.29842 0.210413,0.58938 0.51332,0.68934 l 17.241851,5.101 -16.774385,6.57497 c -0.293947,0.12386 -0.468516,0.42976 -0.456568,0.72818 l 0.0687,1.71596 c 0.01792,0.44764 0.40141,0.69383 0.843077,0.5267 l 19.527336,-7.80609 c 0.293947,-0.12386 0.468516,-0.42976 0.456568,-0.72818 z m 0.213563,-29.47283 c 0.0837,-2.87345 -1.186889,-5.41285 -3.381367,-7.0081 l 2.574906,0.075 c 0.298539,0.009 0.528967,-0.20868 0.537663,-0.50722 l 0.04566,-1.56734 c 0.0087,-0.29854 -0.208686,-0.52896 -0.507226,-0.53766 l -14.329909,-0.41744 c -4.067604,-0.11849 -6.84469,2.90059 -6.977314,7.45332 -0.09784,3.35857 1.35717,5.97805 3.630632,7.42619 0.147095,0.079 0.257961,0.11957 0.369913,0.12283 0.261222,0.008 0.451071,-0.0989 0.644181,-0.31738 l 0.701065,-0.988 c 0.116301,-0.14601 0.196372,-0.33043 0.20072,-0.4797 0.0087,-0.29854 -0.170281,-0.56519 -0.463386,-0.76048 -1.466608,-0.9391 -2.389031,-2.60933 -2.323806,-4.84838 0.07936,-2.72418 1.709742,-4.84293 4.135377,-4.77227 l 0.29854,0.009 c 1.455381,0.0424 2.14702,0.66013 2.328529,2.12204 0.17716,1.61117 0.321351,3.07199 0.530393,4.87084 0.444532,3.97196 2.615094,6.38818 5.899031,6.48384 3.54516,0.10328 5.975518,-2.55241 6.0864,-6.35879 z m -2.603526,-0.37464 c -0.06957,2.38832 -1.460834,3.99115 -3.513295,3.93136 -1.940509,-0.0565 -3.097707,-1.36011 -3.399134,-3.83393 -0.358669,-3.07308 -0.540178,-4.53498 -0.735088,-6.81896 l 1.530016,0.0446 c 2.724176,0.0794 6.230557,2.79594 6.117501,6.67696 z m -20.131606,-31.039 0.165571,-1.78433 c 0.02759,-0.29739 -0.17475,-0.54113 -0.472139,-0.56872 l -3.234103,-0.3001 c -0.297389,-0.0276 -0.541127,0.17475 -0.568723,0.47214 l -0.165571,1.78433 c -0.02759,0.29739 0.17475,0.54113 0.472139,0.56872 l 3.234104,0.3001 c 0.297388,0.0276 0.541126,-0.17475 0.568722,-0.47214 z m 24.01224,1.44078 0.500164,-5.39018 c 0.0276,-0.29739 -0.17475,-0.54112 -0.472139,-0.56872 l -1.709986,-0.15867 c -0.297389,-0.0276 -0.541127,0.17475 -0.568722,0.47214 l -0.355289,3.82888 -16.951165,-1.57293 c -0.743472,-0.069 -1.39344,0.4706 -1.462428,1.21407 l -0.503613,5.42735 c -0.0276,0.29739 0.17475,0.54112 0.472138,0.56872 l 1.709986,0.15867 c 0.297389,0.0276 0.541127,-0.17475 0.568722,-0.47214 l 0.358739,-3.86605 16.951164,1.57293 c 0.743472,0.069 1.39344,-0.4706 1.462429,-1.21407 z m 2.759628,-23.05422 0.809373,-5.46573 c 0.04375,-0.29544 -0.145022,-0.54984 -0.440466,-0.59359 l -1.698807,-0.25156 c -0.295445,-0.0437 -0.549841,0.14502 -0.593591,0.44047 l -0.579686,3.91464 -23.967952,-3.54921 c -0.738611,-0.10937 -1.417,0.39402 -1.526375,1.13263 l -0.738279,4.98563 c -0.04375,0.29544 0.145021,0.54984 0.440466,0.59359 l 1.698807,0.25156 c 0.295445,0.0437 0.549841,-0.14502 0.593591,-0.44046 l 0.508592,-3.43455 23.967952,3.54921 c 0.738611,0.10937 1.417001,-0.39402 1.526375,-1.13263 z m 4.929052,-25.15444 c 0.595292,-2.81236 -0.201593,-5.53778 -2.076063,-7.49913 l 2.52016,0.53344 c 0.292192,0.0618 0.557723,-0.11091 0.619571,-0.4031 l 0.324705,-1.53401 c 0.06185,-0.2922 -0.11091,-0.55773 -0.403102,-0.61957 l -14.025235,-2.96873 c -3.981122,-0.84269 -7.252531,1.63217 -8.19572,6.08811 -0.695795,3.28716 0.268248,6.1243 2.24669,7.95501 0.130634,0.10397 0.232475,0.16369 0.342047,0.18688 0.255669,0.0541 0.461482,-0.0168 0.690489,-0.19729 l 0.866171,-0.84699 c 0.140497,-0.1229 0.2522,-0.29006 0.283124,-0.43615 0.06185,-0.2922 -0.06665,-0.58652 -0.320191,-0.83099 -1.275417,-1.18582 -1.884876,-2.99388 -1.421012,-5.18533 0.564367,-2.66625 2.546778,-4.45994 4.920841,-3.95742 l 0.292193,0.0619 c 1.424438,0.30151 1.994698,1.03278 1.912331,2.50361 -0.113291,1.61692 -0.232182,3.08001 -0.347605,4.88728 -0.271631,3.98752 1.432755,6.75239 4.646872,7.43273 3.469784,0.73445 6.335167,-1.44475 7.123734,-5.1702 z m -2.494835,-0.83337 c -0.494787,2.33754 -2.149819,3.66628 -4.158642,3.24107 -1.899251,-0.40201 -2.805164,-1.89123 -2.660155,-4.37912 0.195658,-3.08775 0.278025,-4.55857 0.493951,-6.84066 l 1.497486,0.31698 c 2.666256,0.56436 5.63139,3.86323 4.82736,7.66173 z m 10.76279,-32.4973 c 1.187979,-4.1257 -1.213287,-8.46905 -5.338985,-9.65703 l -6.242361,-1.79747 c -4.125698,-1.18798 -8.469051,1.21329 -9.657031,5.33899 -0.599155,2.08079 -0.178016,4.26111 0.982417,6.03271 l -8.46665,-2.43794 c -0.287005,-0.0826 -0.56424,0.0706 -0.646882,0.35764 l -0.516513,1.79378 c -0.08264,0.287 0.07063,0.56424 0.357635,0.64688 l 26.22509,7.55142 c 0.287005,0.0826 0.56424,-0.0706 0.646882,-0.35764 l 0.475192,-1.65028 c 0.08264,-0.287 -0.07063,-0.56424 -0.357635,-0.64688 l -1.39915,-0.40288 c 1.863451,-0.93973 3.318175,-2.61876 3.937991,-4.7713 z m -2.737439,-0.47743 c -0.80576,2.7983 -3.670526,4.38211 -6.43295,3.58668 l -5.955355,-1.71482 c -2.762424,-0.79543 -4.346238,-3.6602 -3.540478,-6.4585 0.79543,-2.76242 3.660195,-4.34624 6.422619,-3.55081 l 5.955356,1.71483 c 2.762424,0.79543 4.346237,3.66019 3.550808,6.42262 z m 10.313995,-24.59636 1.85936,-5.20308 c 0.10051,-0.28125 -0.035,-0.56756 -0.31629,-0.66807 l -1.61718,-0.57791 c -0.28125,-0.1005 -0.56756,0.0351 -0.66807,0.3163 l -1.3317,3.72653 -22.816207,-8.15354 c -0.703119,-0.25127 -1.466626,0.11022 -1.717891,0.81333 l -1.696038,4.74606 c -0.100506,0.28124 0.03505,0.56756 0.316298,0.66806 l 1.617173,0.57791 c 0.281248,0.10051 0.567563,-0.035 0.668069,-0.31629 l 1.168382,-3.26951 22.816207,8.15355 c 0.703117,0.25126 1.466627,-0.11022 1.717887,-0.81334 z m 10.13016,-25.85813 2.13129,-4.97611 c 0.11758,-0.27455 -1.3e-4,-0.56865 -0.27468,-0.68624 l -1.57863,-0.67613 c -0.27454,-0.11759 -0.56864,1.3e-4 -0.68623,0.27467 l -2.13129,4.97612 c -1.13178,2.64249 -4.17081,3.8589 -6.8133,2.72711 l -1.51,-0.64673 4.70353,-10.98178 c 0.29397,-0.68636 -0.0199,-1.47062 -0.7063,-1.76459 l -2.33363,-0.9995 c -4.15248,-1.77853 -8.907089,0.12457 -10.670912,4.24273 -1.763824,4.11817 0.139269,8.87278 4.291753,10.6513 l 4.907479,2.10189 c 4.15249,1.77852 8.90709,-0.12457 10.67092,-4.24274 z m -13.333736,-0.0656 -1.269768,-0.54384 c -2.64249,-1.13179 -3.8589,-4.17082 -2.727113,-6.81331 1.131787,-2.64249 4.170815,-3.8589 6.813307,-2.72711 l 1.26977,0.54385 z m 35.403646,-43.57007 c 2.17773,-3.82941 1.60519,-7.50495 -1.76988,-9.42432 -3.27772,-1.86399 -5.67236,0.0812 -8.51056,2.50426 -1.92756,1.65249 -3.41094,3.12811 -5.58526,1.89159 -1.75245,-0.99659 -1.94136,-2.77899 -0.74176,-4.88841 0.79358,-1.39547 2.03705,-2.44919 3.50322,-3.29037 0.3099,-0.16735 0.32774,-0.50079 0.15593,-0.72733 l -0.96145,-1.40573 c -0.13935,-0.20809 -0.40342,-0.27237 -0.59306,-0.16548 -1.75316,0.89271 -3.35682,2.42877 -4.40877,4.27857 -1.864,3.27772 -1.76871,6.8107 1.73617,8.80388 3.27772,1.864 5.56671,0.33115 8.77018,-2.35661 2.27438,-1.88475 3.60566,-3.01738 5.3581,-2.02078 1.88225,1.07041 2.09024,3.12135 0.81682,5.36058 -0.94123,1.65509 -2.30496,2.76926 -3.75267,3.57799 -0.0878,0.0789 -0.15719,0.12535 -0.21255,0.22271 -0.0923,0.16226 -0.0872,0.37989 0.0197,0.56952 l 0.97544,1.45664 c 0.15781,0.17563 0.42189,0.23992 0.61152,0.13302 1.79962,-0.82335 3.48155,-2.57258 4.58888,-4.51973 z m 17.54573,-15.9938 1.03081,-1.55623 c 0.16493,-0.249 0.10188,-0.55944 -0.14712,-0.72437 l -6.9408,-4.59742 c 1.92452,-0.47168 3.6708,-1.68835 4.80469,-3.40021 2.4121,-3.64159 1.40369,-8.47411 -2.17565,-10.84497 l -5.4157,-3.58723 c -3.57934,-2.37087 -8.44298,-1.38307 -10.81385,2.19627 -1.23697,1.86748 -1.57213,4.06362 -0.92381,6.1947 l -1.36949,-0.90711 c -0.249,-0.16493 -0.55944,-0.10188 -0.72437,0.14712 l -0.94835,1.43173 c -0.16493,0.249 -0.10188,0.55945 0.14712,0.72438 l 22.75215,15.07046 c 0.24899,0.16493 0.55944,0.10188 0.72437,-0.14712 z m -3.69996,-11.58596 c -1.60807,2.42773 -4.816,3.07925 -7.2126,1.4918 l -5.1667,-3.42229 c -2.3966,-1.58745 -3.04813,-4.79539 -1.44006,-7.22311 1.58745,-2.3966 4.79538,-3.04813 7.19199,-1.46068 l 5.16669,3.4223 c 2.39661,1.58745 3.04813,4.79538 1.46068,7.19198 z m 19.11054,-22.06842 c 1.75522,-2.2766 2.21811,-5.07816 1.37873,-7.65808 l 2.04007,1.57286 c 0.23653,0.18236 0.5507,0.14174 0.73306,-0.0948 l 0.95739,-1.24178 c 0.18236,-0.23653 0.14173,-0.5507 -0.0948,-0.73306 l -11.35342,-8.75331 c -3.22272,-2.48466 -7.24348,-1.67192 -10.02448,1.93516 -2.05155,2.66096 -2.4122,5.63562 -1.42251,8.14287 0.0727,0.15031 0.13858,0.24826 0.22727,0.31665 0.20697,0.15956 0.42318,0.18484 0.70778,0.12142 l 1.14766,-0.38798 c 0.17988,-0.0499 0.35299,-0.15212 0.44417,-0.27038 0.18236,-0.23653 0.1941,-0.55747 0.0715,-0.88766 -0.63556,-1.6214 -0.4013,-3.51498 0.9664,-5.28895 1.66404,-2.15833 4.22794,-2.91578 6.14974,-1.4341 l 0.23653,0.18236 c 1.15308,0.88901 1.35012,1.79517 0.63851,3.08503 -0.80279,1.40811 -1.54397,2.67517 -2.43117,4.25391 -1.97279,3.47595 -1.63491,6.70632 0.96692,8.71229 2.80879,2.16553 6.3355,1.44329 8.6606,-1.57246 z m -1.88728,-1.83219 c -1.45888,1.89224 -3.52625,2.37253 -5.15239,1.1188 -1.53744,-1.18535 -1.70853,-2.92004 -0.49971,-5.09936 1.5144,-2.69797 2.22601,-3.98782 3.40955,-5.95092 l 1.21221,0.93459 c 2.15833,1.66405 3.40103,5.92201 1.03034,8.99689 z m 22.93723,-23.67897 c 1.45968,-1.64956 2.10313,-3.67244 2.0088,-5.65026 -0.0129,-0.2108 -0.10319,-0.39042 -0.24298,-0.51412 -0.16775,-0.14844 -0.35703,-0.21623 -0.56782,-0.20336 -0.44955,0.001 -0.81845,0.0235 -1.21208,0.074 -0.23554,0.0408 -0.41516,0.13115 -0.53886,0.27094 -0.14844,0.16775 -0.21623,0.35703 -0.20013,0.62052 0.0245,1.268 -0.40048,2.537 -1.31587,3.57147 -1.90501,2.15282 -5.17236,2.35235 -7.32518,0.44734 l -4.64114,-4.10691 c -2.15281,-1.90501 -2.35235,-5.17235 -0.44733,-7.32517 0.91539,-1.03447 2.12325,-1.61074 3.38481,-1.74068 0.26349,-0.0161 0.44311,-0.1064 0.59155,-0.27415 0.1237,-0.1398 0.19149,-0.32907 0.20336,-0.56783 -0.001,-0.44955 -0.0235,-0.81844 -0.074,-1.21208 -0.0408,-0.23553 -0.13115,-0.41515 -0.27094,-0.53885 -0.13979,-0.12371 -0.32907,-0.19149 -0.53986,-0.17862 -1.97461,0.14704 -3.90416,1.03186 -5.36385,2.68142 -2.96885,3.35504 -2.65667,8.46685 0.72633,11.46044 l 4.36155,3.85951 c 3.383,2.99359 8.49481,2.68141 11.46366,-0.67363 z m 19.22962,-20.94045 3.85255,-3.80289 c 0.21256,-0.20981 0.21461,-0.52659 0.005,-0.73915 l -1.20643,-1.22219 c -0.20982,-0.21255 -0.52659,-0.21461 -0.73915,-0.005 l -3.85256,3.80288 c -2.04584,2.01947 -5.3192,1.99823 -7.33866,-0.0476 l -1.15398,-1.16906 8.50219,-8.39257 c 0.53139,-0.52453 0.53687,-1.36927 0.0123,-1.90066 l -1.78342,-1.80672 c -3.17345,-3.21489 -8.29467,-3.24812 -11.483,-0.1009 -3.18832,3.14721 -3.22155,8.26844 -0.0481,11.48333 l 3.75043,3.79942 c 3.17345,3.21489 8.29467,3.24812 11.483,0.10091 z m -12.32176,-5.0958 -0.97039,-0.98307 c -2.01946,-2.04584 -1.99822,-5.3192 0.0476,-7.33866 2.04584,-2.01946 5.3192,-1.99822 7.33866,0.0476 l 0.97039,0.98306 z"
   id="text62"
   style="font-size:37.3333px;font-family:'Miriam Libre';-inkscape-font-specification:'Miriam Libre';white-space:pre;fill:#8c8c8c;stroke:#8c8c8c;stroke-width:1.056"
   aria-label="a v a i l a b l e   s p a c e" /></g>
</svg>
